<svg xmlns="http://www.w3.org/2000/svg" viewBox="0 0 750 500"><g id="freepik--Device--inject-10"><path d="M547,114.73H165a11.93,11.93,0,0,0-11.92,11.93V396.45A11.92,11.92,0,0,0,165,408.37h146.6l-7.16,56.17H410.85l-6-56.17H547a11.93,11.93,0,0,0,11.93-11.92V126.66A11.93,11.93,0,0,0,547,114.73Z" style="fill:#455a64"></path><path d="M361.12,380c5.19,7.42-2.94,15.56-10.36,10.36a2.43,2.43,0,0,1-.64-.64c-5.19-7.42,2.94-15.54,10.36-10.36A2.59,2.59,0,0,1,361.12,380Z" style="fill:#263238"></path><path d="M173.49,125h365.1a9.7,9.7,0,0,1,9.7,9.7V359a0,0,0,0,1,0,0H163.79a0,0,0,0,1,0,0V134.73A9.7,9.7,0,0,1,173.49,125Z" style="fill:#e0e0e0"></path><path d="M153.11,352.36v4.57H530.26s3.39-13.93,6.07-29.21c4.62-26.39,6.19-62.56,6.48-72.5s0-5.64,0-5.64Z" style="opacity:0.30000000000000004"></path><path d="M164,133.34s.74,194.23-34.09,219H524.6s9.08-21.63,20.84-135.06c2.85-27.45,2.85-48.58,2.85-48.58V133.18A8.21,8.21,0,0,0,540,125H172.26A8.24,8.24,0,0,0,164,133.34Z" style="fill:#fafafa"></path><path d="M164,133.34s0-.27,0-.8a8.08,8.08,0,0,1,2.77-5.48,8.35,8.35,0,0,1,4.92-2c8.19-.07,20.26-.05,35.8-.08l131.7-.08,195.39-.06H538a21.64,21.64,0,0,1,3.49.14,8.42,8.42,0,0,1,7,7.25c.12,1.21,0,2.35.06,3.53,0,2.34,0,4.69,0,7q0,14.13,0,28.58c-.16,9.63-.63,19.35-1.34,29.16s-1.77,19.67-2.85,29.62c-2.16,19.9-4.55,40.14-7.48,60.61q-2.15,15.36-4.9,30.86c-.94,5.16-1.91,10.33-3,15.49a133.71,133.71,0,0,1-4.06,15.39l-.05.16h-2.64l-392.28-.06h-.61l.49-.36a25.62,25.62,0,0,0,4.56-4.45,42.59,42.59,0,0,0,3.51-5.26A78.75,78.75,0,0,0,143,331.16a180,180,0,0,0,6.63-23.07c3.38-15.22,5.48-29.81,7.13-43.49,3.24-27.38,4.65-51.16,5.6-70.61s1.26-34.64,1.44-44.93.18-15.32.18-15.72c0,0,0,1.35,0,4s0,6.57-.09,11.72c-.14,10.3-.44,25.47-1.32,44.94s-2.3,43.25-5.51,70.64c-1.64,13.69-3.72,28.29-7.1,43.53a177.87,177.87,0,0,1-6.62,23.12,78.46,78.46,0,0,1-5.18,11.39,44.27,44.27,0,0,1-3.54,5.32,26.43,26.43,0,0,1-4.63,4.52l-.12-.36,392.28-.06h2.45l-.24.16a134,134,0,0,0,4-15.3c1.13-5.15,2.1-10.32,3-15.47q2.73-15.48,4.9-30.84c2.93-20.47,5.32-40.7,7.49-60.59,1.07-10,2.18-19.81,2.85-29.61s1.18-19.51,1.35-29.13q0-14.44,0-28.57v-7c0-1.16.05-2.36-.06-3.48a7.94,7.94,0,0,0-6.56-6.83,22.58,22.58,0,0,0-3.41-.13h-3.46l-195.39,0-131.7-.09H171.68a8.17,8.17,0,0,0-4.88,2,8,8,0,0,0-2.24,3.13A8.73,8.73,0,0,0,164,133.34Z" style="fill:#263238"></path><path d="M444.29,408.38c0,.13-32,.23-71.51.23s-71.51-.1-71.51-.23,32-.24,71.51-.24S444.29,408.25,444.29,408.38Z" style="fill:#263238"></path><path d="M252.55,154.37h-63a4.42,4.42,0,0,1-4.42-4.41h0a4.42,4.42,0,0,1,4.42-4.42h63A4.42,4.42,0,0,1,257,150h0A4.42,4.42,0,0,1,252.55,154.37Z" style="fill:#e0e0e0"></path><path d="M271.85,186.06H192.58a10,10,0,0,1-10-10.05h0a10,10,0,0,1,10-10h79.27a10,10,0,0,1,10,10h0A10,10,0,0,1,271.85,186.06Z" style="fill:#7E57C2"></path><path d="M306.88,202.66H188.26a3.17,3.17,0,0,1-3.17-3.17h0a3.17,3.17,0,0,1,3.17-3.16H306.88a3.17,3.17,0,0,1,3.16,3.16h0A3.17,3.17,0,0,1,306.88,202.66Z" style="fill:#e0e0e0"></path><path d="M306.88,212.57H188.26a3.17,3.17,0,0,1-3.17-3.17h0a3.16,3.16,0,0,1,3.17-3.16H306.88A3.16,3.16,0,0,1,310,209.4h0A3.17,3.17,0,0,1,306.88,212.57Z" style="fill:#e0e0e0"></path><path d="M239.87,222.47H188.26a3.16,3.16,0,0,1-3.17-3.16h0a3.17,3.17,0,0,1,3.17-3.17h51.61a3.16,3.16,0,0,1,3.16,3.17h0A3.15,3.15,0,0,1,239.87,222.47Z" style="fill:#e0e0e0"></path><path d="M517.14,311H372.87a3.17,3.17,0,0,1-3.17-3.17h0a3.17,3.17,0,0,1,3.17-3.16H517.14a3.17,3.17,0,0,1,3.17,3.16h0A3.17,3.17,0,0,1,517.14,311Z" style="fill:#e0e0e0"></path><path d="M513,173.41H376.59a3.17,3.17,0,0,1-3.17-3.16h0a3.17,3.17,0,0,1,3.17-3.17H513a3.17,3.17,0,0,1,3.17,3.17h0A3.17,3.17,0,0,1,513,173.41Z" style="fill:#e0e0e0"></path><path d="M426.72,185.33H376.59a3.17,3.17,0,0,1-3.17-3.17h0a3.17,3.17,0,0,1,3.17-3.16h50.13a3.17,3.17,0,0,1,3.16,3.16h0A3.17,3.17,0,0,1,426.72,185.33Z" style="fill:#e0e0e0"></path><path d="M516.92,322.53H372.65a3.16,3.16,0,0,1-3.17-3.16h0a3.17,3.17,0,0,1,3.17-3.17H516.92a3.17,3.17,0,0,1,3.17,3.17h0A3.16,3.16,0,0,1,516.92,322.53Z" style="fill:#e0e0e0"></path><path d="M444.89,334.05H369.24a3.17,3.17,0,0,1-3.16-3.16h0a3.17,3.17,0,0,1,3.16-3.17h75.65a3.17,3.17,0,0,1,3.17,3.17h0A3.17,3.17,0,0,1,444.89,334.05Z" style="fill:#e0e0e0"></path><path d="M437.61,156.44H378a4.58,4.58,0,0,1-4.57-4.57h0A4.58,4.58,0,0,1,378,147.3h59.62a4.57,4.57,0,0,1,4.57,4.57h0A4.57,4.57,0,0,1,437.61,156.44Z" style="fill:#e0e0e0"></path><path d="M370.85,203.42a1.41,1.41,0,0,1,0,.36c0,.25,0,.59,0,1,0,.93,0,2.27,0,4,0,3.52,0,8.63.07,15.06,0,12.91.06,31.11.1,52.38l-.25-.25h37.51l78,.07,23.65.09,6.43,0,1.67,0,.57,0s-.2,0-.57,0l-1.67,0-6.43.05-23.65.08-78,.08-37.51,0h-.24v-.24c0-21.27.07-39.47.09-52.38,0-6.43.05-11.54.07-15.06,0-1.74,0-3.08,0-4,0-.44,0-.78,0-1A2.45,2.45,0,0,1,370.85,203.42Z" style="fill:#263238"></path><rect x="456.73" y="257.03" width="7.73" height="12.54" transform="translate(921.19 526.6) rotate(180)" style="fill:#7E57C2"></rect><rect x="487.9" y="257.03" width="7.73" height="12.54" transform="translate(983.54 526.6) rotate(180)" style="fill:#7E57C2"></rect><rect x="503.49" y="261.84" width="7.73" height="7.73" transform="translate(1014.71 531.41) rotate(180)" style="fill:#7E57C2"></rect><rect x="472.32" y="251.07" width="7.73" height="18.5" transform="translate(952.36 520.64) rotate(180)" style="fill:#7E57C2"></rect><rect x="441.14" y="246.52" width="7.73" height="23.05" transform="translate(890.01 516.09) rotate(180)" style="fill:#7E57C2"></rect><rect x="425.55" y="239.92" width="7.73" height="29.65" transform="translate(858.84 509.49) rotate(180)" style="fill:#7E57C2"></rect><rect x="409.97" y="232.57" width="7.73" height="37.01" transform="translate(827.66 502.14) rotate(180)" style="fill:#7E57C2"></rect><rect x="394.38" y="222.59" width="7.73" height="46.98" transform="translate(796.49 492.17) rotate(180)" style="fill:#7E57C2"></rect><rect x="378.79" y="208.55" width="7.73" height="61.02" transform="translate(765.31 478.12) rotate(180)" style="fill:#7E57C2"></rect><rect x="503.49" y="253.34" width="7.73" height="3.76" rx="1.74" transform="translate(1014.71 510.44) rotate(180)" style="fill:#e0e0e0"></rect><rect x="488.31" y="249.58" width="7.73" height="3.76" rx="1.74" transform="translate(984.34 502.91) rotate(180)" style="fill:#e0e0e0"></rect><rect x="472.68" y="243.42" width="7.73" height="3.76" rx="1.74" transform="translate(953.1 490.6) rotate(180)" style="fill:#e0e0e0"></rect><rect x="456.87" y="249.06" width="7.73" height="3.76" rx="1.74" transform="translate(921.47 501.89) rotate(180)" style="fill:#e0e0e0"></rect><rect x="441.14" y="238.45" width="7.73" height="3.76" rx="1.74" transform="translate(890.01 480.66) rotate(180)" style="fill:#e0e0e0"></rect><rect x="425.55" y="232.27" width="7.73" height="3.76" rx="1.74" transform="translate(858.84 468.3) rotate(180)" style="fill:#e0e0e0"></rect><rect x="409.97" y="225.19" width="7.73" height="3.76" rx="1.74" transform="translate(827.66 454.14) rotate(180)" style="fill:#e0e0e0"></rect><rect x="394.33" y="214.77" width="7.73" height="3.76" rx="1.74" transform="translate(796.39 433.29) rotate(180)" style="fill:#e0e0e0"></rect><rect x="378.86" y="200.98" width="7.73" height="3.76" rx="1.74" transform="translate(765.45 405.72) rotate(180)" style="fill:#e0e0e0"></rect><path d="M420.59,299.17H373.22a2.94,2.94,0,0,1-2.94-2.94h0a2.94,2.94,0,0,1,2.94-2.94h47.37a2.94,2.94,0,0,1,2.94,2.94h0A2.94,2.94,0,0,1,420.59,299.17Z" style="fill:#e0e0e0"></path><path d="M234.21,304.69H186.85a2.94,2.94,0,0,1-2.94-2.94h0a2.94,2.94,0,0,1,2.94-2.95h47.36a3,3,0,0,1,2.95,2.95h0A3,3,0,0,1,234.21,304.69Z" style="fill:#e0e0e0"></path><path d="M317,272c0,.1-29.14.19-65.06.19s-65.07-.09-65.07-.19,29.12-.19,65.07-.19S317,271.91,317,272Z" style="fill:#e0e0e0"></path><path d="M317,260.78c0,.11-29.14.2-65.06.2s-65.07-.09-65.07-.2,29.12-.19,65.07-.19S317,260.68,317,260.78Z" style="fill:#e0e0e0"></path><path d="M317,249.55c0,.11-29.14.19-65.06.19s-65.07-.08-65.07-.19,29.12-.19,65.07-.19S317,249.44,317,249.55Z" style="fill:#e0e0e0"></path><path d="M317,238.32c0,.1-29.14.19-65.06.19s-65.07-.09-65.07-.19,29.12-.2,65.07-.2S317,238.21,317,238.32Z" style="fill:#e0e0e0"></path><path d="M307.83,271.6c-2.53-6.12-4.27-12.81-6.22-19.15-1.69-5.51-1.85-8.09-3.3-12.76-2.29-7.34-8.35-8.15-12.75-6.16-3.92,1.77-5.62,6.39-6.92,10.54Q276.3,251.51,274,259a26.41,26.41,0,0,1-2.85,6.79,8.72,8.72,0,0,1-5.84,4.07c-4,.52-7.54-2.81-9.24-6.49s-2.17-7.84-3.69-11.61-4.65-7.37-8.67-7.45c-4.94-.09-8.29,4.95-10.35,9.51a109.58,109.58,0,0,0-6.23,17.81,24,24,0,0,1-2.07,6.07,7,7,0,0,1-4.91,3.71c-2.71.34-5.23-1.6-6.81-3.86s-2.55-4.92-4.16-7.15-4.22-4.09-6.91-3.62c-2.42.42-4.15,2.54-5.58,4.56a107.19,107.19,0,0,0-10,17.4h134.6C315.06,286.56,310.37,277.72,307.83,271.6Z" style="fill:#7E57C2"></path><path d="M315.43,288.7l-.49,0-1.42,0-5.47,0-20.09.06-66.32.06H186.49v-.18c0-17.25,0-31.95.07-42.35,0-5.18,0-9.3.05-12.13,0-1.4,0-2.48,0-3.22v-.83c0-.19,0-.28,0-.28s0,.09,0,.28V231c0,.74,0,1.82,0,3.22,0,2.83,0,6.95.05,12.13,0,10.4,0,25.1.07,42.35l-.18-.18h35l66.32.05,20.09.06,5.47,0,1.42,0A4.68,4.68,0,0,1,315.43,288.7Z" style="fill:#263238"></path><g style="opacity:0.30000000000000004"><polygon points="299.62 244.63 251.85 288.7 275.73 288.7 304.49 262.07 299.62 244.63" style="fill:#fff"></polygon></g><g style="opacity:0.30000000000000004"><polyline points="257.53 265.82 231.25 288.7 224.48 288.7 255.52 262.08 258.22 266.66" style="fill:#fff"></polyline></g><path d="M186.66,288.7a86,86,0,0,1,4.43-8.79,97.74,97.74,0,0,1,6.25-9.71,12.36,12.36,0,0,1,2.45-2.51,5.62,5.62,0,0,1,3.54-1.14A6.72,6.72,0,0,1,207,268a11.24,11.24,0,0,1,2.79,3.1c1.55,2.38,2.55,5.26,4.6,7.55a8.14,8.14,0,0,0,3.86,2.46,5.09,5.09,0,0,0,2.33,0,5.77,5.77,0,0,0,2.16-1,9.22,9.22,0,0,0,2.86-4,41.37,41.37,0,0,0,1.46-5,106.24,106.24,0,0,1,3.27-10.46c.65-1.76,1.36-3.52,2.11-5.28a38,38,0,0,1,2.62-5.22,15.43,15.43,0,0,1,4-4.47,8.26,8.26,0,0,1,2.77-1.33,7.31,7.31,0,0,1,3.09-.09,9.26,9.26,0,0,1,5.2,3.32,16.36,16.36,0,0,1,3,5.55c.68,2,1.14,4.08,1.73,6.13a20.65,20.65,0,0,0,2.46,5.85,10.77,10.77,0,0,0,4.7,4.1,6.48,6.48,0,0,0,5.93-.49,10.84,10.84,0,0,0,4-4.58,39.36,39.36,0,0,0,2.12-5.76q1.83-5.82,3.59-11.44c.6-1.87,1.14-3.73,1.8-5.54a20,20,0,0,1,2.62-5.08,9,9,0,0,1,4.48-3.29,11,11,0,0,1,2.7-.54,9.44,9.44,0,0,1,2.71.23,8.3,8.3,0,0,1,4.43,2.83,13,13,0,0,1,2.29,4.56c1,3.2,1.52,6.38,2.31,9.36.39,1.49.84,2.93,1.26,4.36l1.23,4.17a129.58,129.58,0,0,0,4.9,14.45,49.76,49.76,0,0,0,5.57,10,20.56,20.56,0,0,0,5.14,5.09,11.75,11.75,0,0,0,1.67.88c.4.17.59.27.59.27l-.6-.23a11.94,11.94,0,0,1-1.7-.85,20.45,20.45,0,0,1-5.22-5.07,49.77,49.77,0,0,1-5.64-10.06,125.26,125.26,0,0,1-5-14.46c-.41-1.35-.82-2.74-1.25-4.16s-.88-2.87-1.27-4.37c-.81-3-1.35-6.17-2.33-9.34a12.84,12.84,0,0,0-2.24-4.44,8.06,8.06,0,0,0-4.26-2.72,9.47,9.47,0,0,0-2.61-.21,10.26,10.26,0,0,0-2.61.53,8.69,8.69,0,0,0-4.31,3.17,19.61,19.61,0,0,0-2.56,5c-.66,1.79-1.19,3.66-1.79,5.53l-3.59,11.45a39.27,39.27,0,0,1-2.13,5.8,11.26,11.26,0,0,1-4.12,4.75,6.91,6.91,0,0,1-3.06,1,7,7,0,0,1-3.21-.51,11.09,11.09,0,0,1-4.88-4.24,21.06,21.06,0,0,1-2.51-6c-.59-2.06-1-4.13-1.72-6.11a16.26,16.26,0,0,0-2.9-5.43,8.89,8.89,0,0,0-5-3.19,6.89,6.89,0,0,0-2.93.08,7.87,7.87,0,0,0-2.64,1.27,15,15,0,0,0-3.86,4.36,37.32,37.32,0,0,0-2.6,5.17c-.75,1.76-1.46,3.51-2.11,5.27a107.37,107.37,0,0,0-3.28,10.41,42.53,42.53,0,0,1-1.48,5.05,9.47,9.47,0,0,1-3,4.14,5.94,5.94,0,0,1-2.28,1.09,5.46,5.46,0,0,1-2.48,0,8.49,8.49,0,0,1-4-2.56c-2.1-2.36-3.08-5.25-4.61-7.61a11,11,0,0,0-2.71-3,6.58,6.58,0,0,0-3.54-1.39,5.27,5.27,0,0,0-3.39,1.08,11.69,11.69,0,0,0-2.42,2.45,103.89,103.89,0,0,0-6.3,9.65c-1.58,2.75-2.69,4.94-3.43,6.43l-.83,1.71C186.77,288.5,186.66,288.7,186.66,288.7Z" style="fill:#263238"></path><path d="M188.06,327.94a13.61,13.61,0,1,1,13.83,13.45A13.66,13.66,0,0,1,188.06,327.94Zm20.12-.32a6.51,6.51,0,1,0-6.41,6.64A6.53,6.53,0,0,0,208.18,327.62Z" style="fill:#f5f5f5"></path><path d="M188.06,327.94a13.66,13.66,0,0,1,13.39-13.89l.12,7.14a6.54,6.54,0,0,0,.2,13.07l.12,7.13A13.66,13.66,0,0,1,188.06,327.94Z" style="fill:#455a64"></path><path d="M188.06,327.94a13.61,13.61,0,1,1,13.83,13.45A13.66,13.66,0,0,1,188.06,327.94Zm20.12-.32a6.51,6.51,0,1,0-6.41,6.64A6.53,6.53,0,0,0,208.18,327.62Z" style="fill:none"></path><path d="M208.18,327.62V328a2.46,2.46,0,0,1,0,.51,3.82,3.82,0,0,1-.11.68,6.21,6.21,0,0,1-.68,1.77,6.53,6.53,0,0,1-7.83,3,5.44,5.44,0,0,1-.86-.37,5.34,5.34,0,0,1-.82-.51,7.36,7.36,0,0,1-.76-.62,6.92,6.92,0,0,1-.66-.76,6.51,6.51,0,0,1-1-1.8,7.27,7.27,0,0,1-.37-2.08,6.91,6.91,0,0,1,.3-2.09,6.35,6.35,0,0,1,.92-1.84,6.72,6.72,0,0,1,.63-.78,7.65,7.65,0,0,1,.74-.65,6.92,6.92,0,0,1,.8-.53,7.2,7.2,0,0,1,.85-.39,6.52,6.52,0,0,1,3.46-.34,6.36,6.36,0,0,1,2.78,1.21A6.41,6.41,0,0,1,208,326a4.12,4.12,0,0,1,.14.68c0,.19,0,.36,0,.5a2.73,2.73,0,0,0,0,.31v.11s0,0,0-.11l0-.31a2.81,2.81,0,0,0-.07-.5,4,4,0,0,0-.15-.66,6.11,6.11,0,0,0-.75-1.71,6.38,6.38,0,0,0-1.67-1.81,6.51,6.51,0,0,0-2.73-1.17,6.42,6.42,0,0,0-3.38.35,5.61,5.61,0,0,0-.83.38,6.7,6.7,0,0,0-.78.53,7.06,7.06,0,0,0-.72.63,8.82,8.82,0,0,0-.61.76,6.38,6.38,0,0,0-.89,1.79,7,7,0,0,0-.3,2,6.56,6.56,0,0,0,1.31,3.78,7.55,7.55,0,0,0,.64.74,7.27,7.27,0,0,0,.74.61,7.45,7.45,0,0,0,.79.5,7,7,0,0,0,.85.36,6.38,6.38,0,0,0,6.07-1,6.56,6.56,0,0,0,1.62-1.86,6,6,0,0,0,.69-1.74,3.92,3.92,0,0,0,.13-.67,2.47,2.47,0,0,0,0-.5l0-.31C208.17,327.65,208.17,327.62,208.18,327.62Z" style="fill:#263238"></path><path d="M188.06,327.94a1.18,1.18,0,0,1,0,.22c0,.15,0,.37,0,.65s0,.3,0,.47.06.37.09.57.08.43.12.66a5.76,5.76,0,0,0,.19.74,12.77,12.77,0,0,0,1.56,3.6,13.72,13.72,0,0,0,3.5,3.81l.59.42c.21.14.43.26.65.39s.43.27.66.37l.71.33.36.17.38.13.77.27c.26.08.53.13.8.2a5.68,5.68,0,0,0,.82.17,13.72,13.72,0,0,0,1.72.18c.29,0,.59,0,.88,0l.9-.06.45,0,.45-.08c.3-.06.61-.09.91-.16a15,15,0,0,0,1.8-.57,13.78,13.78,0,0,0,1.75-.81c.28-.16.56-.35.84-.52a7.38,7.38,0,0,0,.8-.58,13.65,13.65,0,0,0,1.51-1.34c.23-.25.45-.51.68-.77l.17-.19.15-.21.3-.42.3-.43.27-.45.26-.45.14-.23.11-.24c.14-.32.29-.64.44-1l.35-1a14.65,14.65,0,0,0,.63-4.29,14.14,14.14,0,0,0-.77-4.26c-.12-.33-.25-.67-.38-1s-.32-.63-.47-.95l-.12-.23-.14-.23-.28-.44-.28-.44-.32-.42-.31-.41-.16-.2-.17-.19-.7-.75a14.62,14.62,0,0,0-1.56-1.29,6.18,6.18,0,0,0-.82-.55l-.85-.5a15.28,15.28,0,0,0-1.78-.75,14.8,14.8,0,0,0-1.81-.51c-.31-.06-.62-.08-.92-.13l-.45-.06-.45,0-.9,0c-.3,0-.59,0-.89.05a12.12,12.12,0,0,0-1.71.23,5.64,5.64,0,0,0-.81.2c-.27.08-.54.14-.8.23l-.76.29-.37.14-.36.18-.69.35c-.24.12-.44.27-.66.4s-.43.26-.63.4-.39.3-.58.45a13.56,13.56,0,0,0-3.37,3.92,12.83,12.83,0,0,0-1.45,3.64c-.06.27-.14.51-.17.75s-.06.46-.09.66-.06.4-.08.57l0,.48c0,.28,0,.5,0,.65s0,.22,0,.22v-.22c0-.15,0-.37,0-.65s0-.3,0-.48,0-.37.07-.57.05-.43.08-.67.11-.49.16-.75a13.21,13.21,0,0,1,1.43-3.68,13.77,13.77,0,0,1,3.39-4l.58-.45.63-.41c.22-.13.43-.29.66-.4l.71-.36.35-.18.38-.15.77-.29c.25-.1.53-.16.8-.24a5.77,5.77,0,0,1,.82-.2,11.08,11.08,0,0,1,1.73-.24c.3,0,.6,0,.9,0l.9,0c.16,0,.31,0,.46,0l.46.06c.31.05.62.08.93.14a13.89,13.89,0,0,1,1.83.51,12.76,12.76,0,0,1,1.8.76c.29.15.58.33.87.5a6.36,6.36,0,0,1,.83.56,13.7,13.7,0,0,1,1.57,1.3c.24.25.48.5.71.76l.18.19.16.2.32.42.32.42.29.44.28.46.14.22.12.24.48,1,.39,1a13.74,13.74,0,0,1,.14,8.66l-.36,1-.45,1-.11.24-.13.23-.27.46-.27.46-.31.43-.31.42-.15.21-.17.2-.68.78a16.17,16.17,0,0,1-1.54,1.35,6.7,6.7,0,0,1-.81.59c-.29.17-.56.36-.85.52a12.81,12.81,0,0,1-1.77.82,13.66,13.66,0,0,1-1.82.57c-.31.07-.62.11-.92.16l-.46.08a3.42,3.42,0,0,1-.46,0l-.9.06c-.3,0-.6,0-.9,0a14.08,14.08,0,0,1-1.73-.18,7.17,7.17,0,0,1-.83-.18c-.28-.07-.55-.12-.81-.21l-.78-.27-.38-.14-.36-.16-.72-.34c-.23-.11-.45-.26-.67-.38s-.44-.25-.65-.39l-.59-.43a13.66,13.66,0,0,1-3.52-3.86,13.08,13.08,0,0,1-1.54-3.63c-.06-.26-.15-.5-.18-.74s-.08-.46-.11-.67-.07-.4-.09-.57l0-.48,0-.65C188.06,328,188.06,327.94,188.06,327.94Z" style="fill:#263238"></path><path d="M251.63,315.32a13.61,13.61,0,1,1-13.45,13.82A13.65,13.65,0,0,1,251.63,315.32Zm.32,20.11a6.51,6.51,0,1,0-6.64-6.4A6.53,6.53,0,0,0,252,335.43Z" style="fill:#f5f5f5"></path><path d="M251.63,315.32a13.65,13.65,0,0,1,13.88,13.38l-7.13.12a6.54,6.54,0,0,0-13.07.21l-7.13.11A13.65,13.65,0,0,1,251.63,315.32Z" style="fill:#7E57C2"></path><path d="M238.17,329a13.66,13.66,0,0,1,13.61-13.67v7.13a6.54,6.54,0,0,0,0,13.07v7.14A13.66,13.66,0,0,1,238.17,329Z" style="fill:#7E57C2"></path><path d="M251.63,315.32a13.61,13.61,0,1,1-13.45,13.82A13.65,13.65,0,0,1,251.63,315.32Zm.32,20.11a6.51,6.51,0,1,0-6.64-6.4A6.53,6.53,0,0,0,252,335.43Z" style="fill:none"></path><path d="M252,335.43h-.42a3.21,3.21,0,0,1-.5,0,5.16,5.16,0,0,1-.68-.12,6.47,6.47,0,0,1-1.77-.67,6.57,6.57,0,0,1-1.91-1.63,6.41,6.41,0,0,1-1.3-2.74,6.5,6.5,0,0,1,.23-3.47,7.86,7.86,0,0,1,.36-.86,7,7,0,0,1,.51-.82,7.47,7.47,0,0,1,.63-.76,9.56,9.56,0,0,1,.75-.66,6.43,6.43,0,0,1,1.81-1,7.21,7.21,0,0,1,2.08-.37,7,7,0,0,1,2.09.31,6.27,6.27,0,0,1,1.83.91,6.92,6.92,0,0,1,.78.63,7.48,7.48,0,0,1,.65.74,7,7,0,0,1,.54.8,7.34,7.34,0,0,1,.39.86,6.6,6.6,0,0,1,.34,3.46,6.71,6.71,0,0,1-1.21,2.78,6.55,6.55,0,0,1-1.86,1.68,6.08,6.08,0,0,1-1.74.73,4.12,4.12,0,0,1-.68.14,3.64,3.64,0,0,1-.5.05H252l.11,0,.3,0a3.53,3.53,0,0,0,.5-.06,5.57,5.57,0,0,0,.67-.15,6.42,6.42,0,0,0,1.71-.75,6.72,6.72,0,0,0,1.81-1.68,6.32,6.32,0,0,0,1.16-2.73,6.42,6.42,0,0,0-.34-3.38,7.75,7.75,0,0,0-.39-.83A7.55,7.55,0,0,0,257,325a7.07,7.07,0,0,0-.64-.71,6.5,6.5,0,0,0-2.54-1.51,6.62,6.62,0,0,0-2-.29,6.48,6.48,0,0,0-3.78,1.3,7.55,7.55,0,0,0-.74.64,7,7,0,0,0-.61.74,7.45,7.45,0,0,0-.5.79,7.72,7.72,0,0,0-.36.85,6.41,6.41,0,0,0,1,6.08,6.51,6.51,0,0,0,1.86,1.61,6.33,6.33,0,0,0,1.73.7,5.33,5.33,0,0,0,.68.13c.19,0,.36,0,.5,0l.3,0Z" style="fill:#263238"></path><path d="M251.63,315.32l-.22,0-.65.05-.48,0-.57.09-.66.12a5.76,5.76,0,0,0-.74.19,13,13,0,0,0-3.59,1.56,13.59,13.59,0,0,0-3.81,3.5l-.43.6c-.13.2-.25.42-.38.64s-.27.43-.38.67-.21.47-.33.7l-.16.36-.13.38-.27.77c-.08.26-.13.53-.2.8a7.48,7.48,0,0,0-.18.82,12.22,12.22,0,0,0-.17,1.72c0,.29,0,.59,0,.89l.06.89a3.73,3.73,0,0,0,0,.46l.08.45c.05.3.09.6.16.9a14.4,14.4,0,0,0,.56,1.8,14.56,14.56,0,0,0,.81,1.75c.17.29.35.56.53.84a6.24,6.24,0,0,0,.58.8,13.56,13.56,0,0,0,1.33,1.51l.77.68.2.17.21.15.42.3.42.31.45.26.46.27.22.13.24.11,1,.44,1,.35a13.5,13.5,0,0,0,8.55-.13l1-.39.95-.47.24-.12.22-.14.45-.28.44-.28.41-.31.41-.32.21-.16.19-.17.75-.7a14.52,14.52,0,0,0,1.28-1.56,6.59,6.59,0,0,0,.56-.82c.16-.28.34-.56.49-.85a15.35,15.35,0,0,0,.76-1.78,14.75,14.75,0,0,0,.5-1.81c.06-.31.09-.61.14-.92l.06-.45c0-.15,0-.3,0-.45l0-.9c0-.3,0-.59,0-.88a13.29,13.29,0,0,0-.23-1.71c0-.29-.14-.55-.2-.82s-.14-.54-.23-.8l-.3-.75-.14-.38-.18-.35c-.12-.24-.23-.47-.35-.7s-.26-.44-.39-.66-.27-.42-.41-.62l-.45-.58a13.57,13.57,0,0,0-3.91-3.38,13.19,13.19,0,0,0-3.65-1.45c-.26-.05-.5-.14-.74-.16l-.67-.1c-.2,0-.39-.06-.57-.07l-.48,0-.64,0H253c.18,0,.37.05.58.07l.67.09a6,6,0,0,1,.75.16,12.8,12.8,0,0,1,3.67,1.42,13.51,13.51,0,0,1,4,3.39c.15.19.3.39.46.58s.27.42.41.64.28.42.4.65l.36.71.18.36c0,.12.09.25.14.37l.3.77c.09.26.15.53.23.8a5.6,5.6,0,0,1,.21.83,13.6,13.6,0,0,1,.24,1.73c0,.29,0,.59,0,.89l0,.91c0,.15,0,.3,0,.45l-.06.46c0,.31-.07.62-.13.93a15.25,15.25,0,0,1-.51,1.84,16.41,16.41,0,0,1-.76,1.8c-.16.29-.33.57-.5.86a7.54,7.54,0,0,1-.56.83,14.93,14.93,0,0,1-1.3,1.58l-.76.71-.19.17-.21.16-.41.32-.42.33-.45.28-.45.28-.23.14-.23.12-1,.48-1,.39a14.86,14.86,0,0,1-4.32.78,15,15,0,0,1-4.34-.64l-1-.36-1-.45-.24-.11-.23-.13-.46-.27-.45-.27-.43-.31-.43-.3-.21-.16-.2-.17-.77-.68a15,15,0,0,1-1.36-1.53,6.43,6.43,0,0,1-.58-.82c-.18-.28-.36-.56-.53-.84a16.67,16.67,0,0,1-.82-1.78,13.6,13.6,0,0,1-.56-1.82c-.07-.31-.11-.62-.17-.92l-.08-.46c0-.15,0-.3,0-.45l-.06-.91c0-.3,0-.6,0-.89a11,11,0,0,1,.18-1.74,5.56,5.56,0,0,1,.18-.83c.07-.27.12-.55.2-.81s.19-.52.28-.78l.13-.38.17-.36.33-.72c.11-.23.26-.44.39-.67s.25-.44.39-.64l.43-.6a13.63,13.63,0,0,1,3.86-3.51,12.92,12.92,0,0,1,3.62-1.55c.27-.06.51-.15.75-.18l.67-.11.57-.09.48,0,.64,0Z" style="fill:#263238"></path><path d="M290.89,327a13.61,13.61,0,1,1,13.83,13.45A13.66,13.66,0,0,1,290.89,327Zm20.11-.33a6.51,6.51,0,1,0-6.4,6.64A6.52,6.52,0,0,0,311,326.65Z" style="fill:#f5f5f5"></path><path d="M290.89,327a13.66,13.66,0,0,1,13.39-13.89l.11,7.13a6.54,6.54,0,0,0,.21,13.07l.12,7.14A13.66,13.66,0,0,1,290.89,327Z" style="fill:#455a64"></path><path d="M304.46,313.22a13.65,13.65,0,0,1,13.67,13.6H311a6.54,6.54,0,0,0-13.07,0h-7.13A13.65,13.65,0,0,1,304.46,313.22Z" style="fill:#f5f5f5"></path><path d="M290.89,327a13.61,13.61,0,1,1,13.83,13.45A13.66,13.66,0,0,1,290.89,327Zm20.11-.33a6.51,6.51,0,1,0-6.4,6.64A6.52,6.52,0,0,0,311,326.65Z" style="fill:none"></path><path d="M311,326.65s0,0,0,.11v.31a3.22,3.22,0,0,1,0,.5,4.06,4.06,0,0,1-.11.69,6.17,6.17,0,0,1-.68,1.76,6.43,6.43,0,0,1-1.62,1.91,6.5,6.5,0,0,1-6.21,1.08,7.32,7.32,0,0,1-.87-.37,6.87,6.87,0,0,1-.81-.51,8.94,8.94,0,0,1-.76-.62,8,8,0,0,1-.66-.76,6.43,6.43,0,0,1-1-1.81,6.88,6.88,0,0,1-.37-2.07,7,7,0,0,1,.3-2.1,6.29,6.29,0,0,1,.92-1.83,6.72,6.72,0,0,1,.63-.78,6.5,6.5,0,0,1,.74-.65,5.83,5.83,0,0,1,.8-.53,6,6,0,0,1,.85-.4,6.51,6.51,0,0,1,3.46-.33,6.36,6.36,0,0,1,2.78,1.21,6.52,6.52,0,0,1,1.68,1.85,6.36,6.36,0,0,1,.74,1.75,5.55,5.55,0,0,1,.13.67,2.56,2.56,0,0,1,.05.51c0,.12,0,.23,0,.31s0,.1,0,.1a.82.82,0,0,0,0-.1l0-.31a3.94,3.94,0,0,0-.07-.5,4.38,4.38,0,0,0-.15-.67,6.24,6.24,0,0,0-.75-1.71,6.54,6.54,0,0,0-4.4-3,6.52,6.52,0,0,0-3.38.34,6.28,6.28,0,0,0-.83.39,8.13,8.13,0,0,0-.78.52,8.67,8.67,0,0,0-.72.64,6.54,6.54,0,0,0-.61.76,6,6,0,0,0-.89,1.79,6.88,6.88,0,0,0-.3,2,6.52,6.52,0,0,0,1.31,3.79,6.43,6.43,0,0,0,.64.73,6.23,6.23,0,0,0,.74.62,5.79,5.79,0,0,0,.79.49,6.85,6.85,0,0,0,.84.36,6.4,6.4,0,0,0,3.39.24,6.33,6.33,0,0,0,2.69-1.26A6.43,6.43,0,0,0,310.1,330a6.27,6.27,0,0,0,.69-1.73,5.55,5.55,0,0,0,.13-.67,2.54,2.54,0,0,0,.05-.5l0-.31A.87.87,0,0,0,311,326.65Z" style="fill:#263238"></path><path d="M290.89,327l0,.22c0,.15,0,.36.05.64l0,.48c0,.17.07.36.1.57s.07.42.12.66.12.48.18.74a13.12,13.12,0,0,0,1.57,3.6,13.56,13.56,0,0,0,3.5,3.8l.59.43c.21.14.43.26.64.39s.44.26.67.37l.71.33.36.16.38.14.77.26c.26.09.53.14.8.21a7.45,7.45,0,0,0,.82.17,12.08,12.08,0,0,0,1.72.17c.29,0,.59,0,.88,0l.9-.06a3.42,3.42,0,0,0,.45,0l.45-.07c.3-.06.61-.1.91-.17a13.34,13.34,0,0,0,1.8-.56,15.32,15.32,0,0,0,1.75-.81l.83-.52a7.91,7.91,0,0,0,.81-.58,14.62,14.62,0,0,0,1.51-1.34c.22-.26.45-.51.68-.77l.17-.2.15-.2.3-.43.3-.42.27-.45.26-.45.13-.23.11-.24.45-1c.11-.34.23-.67.35-1a13.4,13.4,0,0,0-.14-8.55c-.13-.34-.25-.67-.38-1l-.47-.95-.12-.24-.14-.22-.28-.44-.28-.45-.32-.41-.31-.41-.16-.21-.18-.18-.7-.75a14.52,14.52,0,0,0-1.55-1.29,6.18,6.18,0,0,0-.82-.55l-.85-.5a14.34,14.34,0,0,0-1.78-.75,15,15,0,0,0-1.82-.51c-.3-.06-.61-.09-.91-.13l-.45-.07-.46,0-.89,0c-.3,0-.6,0-.89.05a11.93,11.93,0,0,0-1.71.23,5.77,5.77,0,0,0-.82.2c-.26.08-.53.13-.79.23l-.76.29-.37.14-.36.18-.7.35c-.23.11-.43.27-.65.4s-.43.26-.63.4l-.58.45a13.62,13.62,0,0,0-3.38,3.92,13,13,0,0,0-1.44,3.64c-.06.26-.14.51-.17.75s-.06.45-.09.66-.06.4-.08.57,0,.34,0,.48,0,.49,0,.65,0,.22,0,.22v-.22c0-.16,0-.37,0-.65s0-.31,0-.48,0-.37.07-.58.05-.43.08-.66.11-.49.16-.76a13,13,0,0,1,1.43-3.67,13.49,13.49,0,0,1,3.39-4l.58-.45c.2-.15.42-.27.63-.41s.43-.29.66-.41l.7-.35.36-.18.38-.15.76-.3c.26-.09.54-.15.81-.23a7.58,7.58,0,0,1,.82-.21,12.41,12.41,0,0,1,1.73-.23c.3,0,.59-.05.89-.05l.91,0a3.54,3.54,0,0,1,.46,0l.46.06c.31.05.62.08.92.14a15.2,15.2,0,0,1,1.84.5,15.63,15.63,0,0,1,1.8.76l.86.5a6.81,6.81,0,0,1,.84.56A14.93,14.93,0,0,1,314,316.9l.71.75.18.19.16.21.32.42.32.41.28.45.29.45.14.23.12.24.48,1,.39,1a14.53,14.53,0,0,1,.77,4.32,14.34,14.34,0,0,1-.64,4.34c-.11.34-.23.68-.35,1l-.45,1-.11.24-.14.23-.26.46-.27.46-.31.42-.31.43-.15.21-.17.2-.69.78a14.93,14.93,0,0,1-1.53,1.35,6.7,6.7,0,0,1-.81.59c-.29.17-.56.36-.85.52a14.1,14.1,0,0,1-1.77.82,15.89,15.89,0,0,1-1.82.57c-.31.07-.62.11-.92.16l-.46.08-.46,0-.9.06c-.3,0-.6,0-.9,0a12.22,12.22,0,0,1-1.73-.17c-.29,0-.56-.13-.84-.18l-.81-.21-.77-.27-.38-.14-.36-.17-.72-.33c-.24-.11-.45-.26-.67-.38l-.65-.39-.59-.44a13.63,13.63,0,0,1-3.52-3.85,13.21,13.21,0,0,1-1.54-3.63,6.21,6.21,0,0,1-.18-.75c0-.23-.08-.46-.11-.66s-.07-.4-.09-.57l0-.48,0-.65C290.89,327.05,290.89,327,290.89,327Z" style="fill:#263238"></path><circle cx="553.4" cy="243.04" r="18.45" transform="translate(-50.81 227.49) rotate(-22.24)" style="fill:#e0e0e0"></circle><path d="M571.85,243a29.64,29.64,0,0,0-.68-4.48,17.6,17.6,0,0,0-2-4.87,18.25,18.25,0,0,0-21.92-7.75,17.13,17.13,0,0,0-4.6,2.48,16.28,16.28,0,0,0-3.85,3.86,18.15,18.15,0,0,0,0,21.51,16.28,16.28,0,0,0,3.85,3.86,17.13,17.13,0,0,0,4.6,2.48,18.31,18.31,0,0,0,21.92-7.75,17.6,17.6,0,0,0,2-4.87,29.83,29.83,0,0,0,.68-4.47,1.29,1.29,0,0,1,0,.29c0,.23,0,.52,0,.88a8,8,0,0,1-.12,1.43,12.54,12.54,0,0,1-.35,1.92,17.84,17.84,0,0,1-2,5,18.64,18.64,0,0,1-12.52,8.84,18.7,18.7,0,0,1-9.81-.78,17.69,17.69,0,0,1-4.74-2.54,17.44,17.44,0,0,1-4-4,18.61,18.61,0,0,1,0-22.11,21.37,21.37,0,0,1,1.84-2.16,20,20,0,0,1,2.12-1.8,17.69,17.69,0,0,1,4.74-2.54,18.7,18.7,0,0,1,9.81-.78,18.7,18.7,0,0,1,12.52,8.84,17.72,17.72,0,0,1,2,5,12.54,12.54,0,0,1,.35,1.92,8,8,0,0,1,.12,1.43c0,.36,0,.65,0,.88A1.43,1.43,0,0,1,571.85,243Z" style="fill:#263238"></path><path d="M551.15,240l5.13,4.51v-1.76l-4.73,4.89c-1.11,1.16.65,2.93,1.77,1.77l4.73-4.9a1.26,1.26,0,0,0,0-1.76l-5.13-4.52a1.3,1.3,0,0,0-1.77,0,1.26,1.26,0,0,0,0,1.77Z" style="fill:#263238"></path></g><g id="freepik--character-1--inject-10"><path d="M89.59,153.6c-2.13-1.36-2.65-4.5-1.49-6.75a8.23,8.23,0,0,1,6.11-4,11.59,11.59,0,0,1,10,3.32c1.38,1.42,2.5,3.27,4.36,3.92,1.65.57,3.46,0,5.19.28a7.81,7.81,0,0,1,5.47,3.94,16.78,16.78,0,0,1,2,6.66c.25,2.13.42,4.46,1.89,6s3.71,1.83,5.49,2.91a7.52,7.52,0,0,1,2.24,10.27c-.71,1-1.73,2-1.81,3.22s.66,2.16,1,3.25a5.08,5.08,0,0,1-4.34,6.3c-1.49.08-3.07-.49-4.4.17s-1.81,2.25-2.66,3.46a6.36,6.36,0,0,1-7.74,2c-1.09-.54-2.11-1.42-3.33-1.34s-2.16,1.11-3.35,1.35c-1.55.3-3-.85-4-2.14s-1.57-2.8-2.76-3.86c-1.55-1.38-3.73-1.72-5.69-2.4a16.06,16.06,0,0,1-9.07-22.5" style="fill:#263238"></path><path d="M112.18,182.65a4.47,4.47,0,0,1,1.73-1.14h-.13a2.2,2.2,0,0,1,.37-.07,1.75,1.75,0,0,1,1.35.17h0a3.21,3.21,0,0,1,1.75,1.53,3.8,3.8,0,0,1-.44,3.9,2.9,2.9,0,0,1-5.32-1A3.6,3.6,0,0,1,112.18,182.65Z" style="fill:#455a64"></path><path d="M83.88,201.74l-2.14-39.17a3.54,3.54,0,0,1,3.06-3.67l18.62-5.27c6-.81,10.19,6.47,10.74,12.49.61,6.68,1.09,14.86.44,19.88-1.31,10.09-9.57,11.62-9.57,11.62s-.06,2.54,0,6.19l-3.8,12.41Z" style="fill:#ffbf9d"></path><path d="M111.56,175.16a1.28,1.28,0,0,1-1.2,1.34,1.22,1.22,0,0,1-1.36-1.12,1.29,1.29,0,0,1,1.2-1.34A1.22,1.22,0,0,1,111.56,175.16Z" style="fill:#263238"></path><path d="M112.5,170.43c-.15.17-1.15-.52-2.54-.48s-2.38.76-2.53.6.08-.38.51-.72a3.63,3.63,0,0,1,2-.69,3.36,3.36,0,0,1,2,.6C112.43,170.05,112.58,170.35,112.5,170.43Z" style="fill:#263238"></path><path d="M98.91,175.36a1.28,1.28,0,0,1-1.2,1.34,1.24,1.24,0,0,1-1.36-1.13,1.28,1.28,0,0,1,1.2-1.33A1.22,1.22,0,0,1,98.91,175.36Z" style="fill:#263238"></path><path d="M98.88,171.07c-.15.18-1.15-.52-2.53-.48s-2.39.77-2.54.6.07-.38.51-.71a3.49,3.49,0,0,1,2-.69,3.42,3.42,0,0,1,2,.59C98.81,170.7,99,171,98.88,171.07Z" style="fill:#263238"></path><path d="M104.21,181.21a9.21,9.21,0,0,1,2.24-.47c.35-.05.68-.13.74-.37a1.88,1.88,0,0,0-.27-1l-1.12-2.67a46.33,46.33,0,0,1-2.56-7c.16-.06,1.55,3,3.11,6.76l1.08,2.68a2,2,0,0,1,.22,1.39.86.86,0,0,1-.56.53,2.08,2.08,0,0,1-.6.1A8.74,8.74,0,0,1,104.21,181.21Z" style="fill:#263238"></path><path d="M105,197.62a24.08,24.08,0,0,1-13-3.24s2.9,7.47,12.93,6.25Z" style="fill:#9575CD"></path><path d="M99.33,165.35c-.12.38-1.51.24-3.13.48s-2.93.73-3.15.39c-.1-.16.12-.52.64-.9a5.51,5.51,0,0,1,4.78-.66C99.08,164.88,99.39,165.17,99.33,165.35Z" style="fill:#263238"></path><path d="M111.88,165.67c-.24.32-1.2,0-2.35,0s-2.11.27-2.35-.05c-.1-.16,0-.48.46-.79a3.39,3.39,0,0,1,3.78,0C111.84,165.19,112,165.51,111.88,165.67Z" style="fill:#263238"></path><path d="M120.93,164a7,7,0,0,0-2.65-3.81,25.06,25.06,0,0,1-2.24-1.3c-1.45-1.17-1.78-3.21-2.68-4.84a7.62,7.62,0,0,0-5.78-3.84c-2-.2-4,.4-6-.09-1.44-.36-2.69-1.3-4.14-1.57C94.63,148,92,150.05,90,152.07c0,2,1.6,3.38,3.16,4.68a7,7,0,0,0,5.68,1.5c1.55-.28,3.24-1.06,4.58-.24s1.47,3,2.72,4.07c1.78,1.55,4.62.1,6.88.77,1.75.52,2.84,2.19,4,3.6s2.91,2.74,4.65,2.22A20.26,20.26,0,0,0,120.93,164Z" style="fill:#263238"></path><path d="M99.68,155.45c-1.26-.37-3.86-1.19-4.54-2.29a7.77,7.77,0,0,0-6.75-3.88,6.41,6.41,0,0,0-5.76,5.06,9.23,9.23,0,0,0-7.91,5.09,10.18,10.18,0,0,0-.5,1.18,7,7,0,0,0-.47,5.88c.44,1.15,1.19,2.42.6,3.5s-2.12,1.13-3.3,1.53a4.65,4.65,0,0,0-2.92,5.2A5.87,5.87,0,0,1,68.5,179a5,5,0,0,1-1.37,2,5.79,5.79,0,0,0,3.39,9.42,7.38,7.38,0,0,1,2.66.6c.9.55,1.29,1.63,1.92,2.47a5,5,0,0,0,5.41,1.7,4.85,4.85,0,0,0,1.09-.55,3.56,3.56,0,0,0,3.17,1.4l-.37-21.18a1.75,1.75,0,0,0,1.28,1c3.4.77,3.9-6.24,3.14-8.13a20,20,0,0,0,3.41-3.59,14.24,14.24,0,0,0,1.57-6.87C95,157.33,100.24,155.6,99.68,155.45Z" style="fill:#263238"></path><path d="M85.33,176.57c-.1-2.16-2.74-2.62-4.6-1.54-1,.59-1.81,1.79-1.72,4.07.25,6.1,6.32,4.59,6.32,4.41S85.46,179.09,85.33,176.57Z" style="fill:#ffbf9d"></path><path d="M83.38,181.28s-.11.08-.28.17a1.12,1.12,0,0,1-.79.05A2.63,2.63,0,0,1,81,179.19a3.45,3.45,0,0,1,.24-1.53,1.22,1.22,0,0,1,.76-.85.55.55,0,0,1,.64.26c.09.17.06.29.09.3s.13-.1.07-.35a.72.72,0,0,0-.26-.38.83.83,0,0,0-.59-.13,1.51,1.51,0,0,0-1.07,1,3.6,3.6,0,0,0-.3,1.72,2.76,2.76,0,0,0,1.66,2.57,1.15,1.15,0,0,0,1-.2C83.37,181.43,83.4,181.29,83.38,181.28Z" style="fill:#9575CD"></path><path d="M91.29,153.8a3.54,3.54,0,0,0-1.21,1,5.59,5.59,0,0,0-.45,4.21l0,.16-.15,0a5.92,5.92,0,0,0-3.93,3.46,4.46,4.46,0,0,0-.31,1.49,9.16,9.16,0,0,0,.19,1.61,11.83,11.83,0,0,1,.23,1.73,2.9,2.9,0,0,1-.48,1.8,7.34,7.34,0,0,1-3,2.27,10.61,10.61,0,0,0-2.83,1.86,7.6,7.6,0,0,0-2.27,5.11,7.91,7.91,0,0,0,.8,3.76c.41.83.75,1.23.71,1.26s-.1-.09-.26-.28a6.87,6.87,0,0,1-.6-.9,7.72,7.72,0,0,1,1.34-9.23A10.58,10.58,0,0,1,82,171.21a7.06,7.06,0,0,0,2.86-2.13c.67-.93.37-2.13.19-3.23a10.41,10.41,0,0,1-.19-1.69,5,5,0,0,1,.36-1.62,6.19,6.19,0,0,1,4.22-3.63l-.11.2a5.69,5.69,0,0,1,.61-4.4,2.5,2.5,0,0,1,1-.77C91.15,153.83,91.29,153.78,91.29,153.8Z" style="fill:#fff"></path><path d="M81.1,183.56a4.36,4.36,0,0,1,1.73-1.14H82.7a2.38,2.38,0,0,1,.37-.06,1.74,1.74,0,0,1,1.36.17h0A3.21,3.21,0,0,1,86.17,184a3.8,3.8,0,0,1-.45,3.91,2.9,2.9,0,0,1-5.32-1A3.6,3.6,0,0,1,81.1,183.56Z" style="fill:#455a64"></path><path d="M98.42,182.68a19.59,19.59,0,0,1,4.69,1.69c.13.71-1,2.3-1.72,2.58a2.51,2.51,0,0,1-2.26-.25,3.08,3.08,0,0,1-1.08-1.91A4.58,4.58,0,0,1,98.42,182.68Z" style="fill:#9575CD"></path><path d="M101.19,187.05a4.67,4.67,0,0,1-1.57-.31,2.69,2.69,0,0,1-1.24-1.1,2.71,2.71,0,0,1,.15-2.86l-.23.07a28.46,28.46,0,0,0,4.45,1.31,28.74,28.74,0,0,0-4.31-1.7l-.15-.05-.09.12a3,3,0,0,0-.15,3.3A2.85,2.85,0,0,0,99.51,187,2,2,0,0,0,101.19,187.05Z" style="fill:#263238"></path><path d="M96.58,454.33v1s16.69,6.88,16.84,10.06l-33.26-.49.62-11.06A19,19,0,0,0,96.58,454.33Z" style="fill:#263238"></path><path d="M80.15,464.89l.15-2.66,31.82,1.45s1.47.66,1.29,1.7Z" style="fill:#455a64"></path><path d="M96.69,455.41c0,.16-.82.22-1.63.74s-1.24,1.18-1.39,1.11.11-1,1.1-1.6S96.73,455.26,96.69,455.41Z" style="fill:#fff"></path><path d="M100.16,456.9c0,.16-.68.43-1.24,1.11s-.73,1.4-.89,1.39-.25-.93.46-1.76S100.15,456.75,100.16,456.9Z" style="fill:#fff"></path><path d="M102.08,461.11c-.15,0-.37-.78.06-1.67s1.2-1.22,1.26-1.09-.41.61-.75,1.34S102.24,461.09,102.08,461.11Z" style="fill:#fff"></path><path d="M72.8,444.3l14.16,4-3.54,8,3.67,20.32a2.31,2.31,0,0,1-1.59,2.64,2.35,2.35,0,0,1-2.39-.69c-3.12-3.5-14.56-16.45-14.28-18l.45-4.23a31.3,31.3,0,0,1,.94-3.14Z" style="fill:#263238"></path><path d="M85.08,479.32,69,459.06l-.08.92a2.53,2.53,0,0,0,.65,2.12c1.27,2,4.87,6.67,13.51,16.46a2.33,2.33,0,0,0,2,.76Z" style="fill:#455a64"></path><path d="M80.83,469.33A6.82,6.82,0,0,1,83,467.81a7.15,7.15,0,0,1,2.62-.24c0-.06-.25-.25-.76-.37a3.71,3.71,0,0,0-2,.16,3.58,3.58,0,0,0-1.63,1.2C80.84,469,80.77,469.3,80.83,469.33Z" style="fill:#fff"></path><path d="M82.15,472.39a20.58,20.58,0,0,1,2.07-.75,17.77,17.77,0,0,1,2.22-.08,2.67,2.67,0,0,0-2.31-.4C82.77,471.42,82,472.32,82.15,472.39Z" style="fill:#fff"></path><path d="M78.2,465.31a23.89,23.89,0,0,1,3.11-1.38,25,25,0,0,1,3.39-.45,5.3,5.3,0,0,0-3.53,0A5.12,5.12,0,0,0,78.2,465.31Z" style="fill:#fff"></path><path d="M84.13,460.6c.34,1.94.67,3.68.93,4.94a10,10,0,0,0,.51,2,11.29,11.29,0,0,0-.21-2.08c-.19-1.27-.47-3-.81-5-.29-1.63-.57-3.13-.8-4.3v0a16.8,16.8,0,0,0-.16-2.73,14.8,14.8,0,0,0-.17,2.73h0v0" style="fill:#455a64"></path><path d="M67.66,322.89A43.45,43.45,0,0,1,67,307.83c1.83-12.17,3-16.68,9.24-29.87l1.55.37,46.63-.37,1.82,2.8c4,10.8,6.74,17.24,7.87,25.14,1.3,9.09-1,22.26-6,35.56-10.91,28.72-17,51.68-17.42,57.86s-1.08,12.58-6.81,32.16c-4.19,14.3-7.28,22.85-7.28,22.85-4.35,2.45-9,3.11-13.16.73l-12.8-4.94s3.92-33.73,8.5-42.67c3.3-6.44,8.7-9.5,6.18-17.89S71.09,339.41,67.66,322.89Z" style="fill:#263238"></path><path d="M115.09,295.5l-.17.22-.49.68-1.87,2.65-7,10.07,0,0v0c.34,3.77.47,8.14.71,13s.48,10.23.76,16,.62,11.92,1,18.37.71,13.19,1.36,20.13c.67,5.77,1.26,11.44.77,16.89a40.3,40.3,0,0,1-.55,4,26.73,26.73,0,0,1-1,3.85c-.92,2.45-2,4.82-3,7.12C101.54,417.8,97.73,426,94.55,433S88.78,445.47,87,449.35c-.88,1.93-1.57,3.43-2,4.47-.22.49-.4.88-.52,1.16s-.17.4-.17.4a3.93,3.93,0,0,0,.21-.38c.13-.28.32-.66.56-1.15l2.12-4.42c1.82-3.88,4.45-9.45,7.69-16.34s7-15.14,11.15-24.35c1-2.31,2.07-4.66,3-7.15a25.58,25.58,0,0,0,1-3.9c.26-1.33.43-2.68.56-4.06.5-5.5-.1-11.2-.77-17-.64-6.91-1-13.66-1.37-20.11s-.68-12.6-1-18.36-.57-11.12-.82-16-.41-9.25-.77-13l0,.08,6.9-10.13,1.82-2.69c.19-.3.34-.53.46-.7A1.3,1.3,0,0,0,115.09,295.5Z" style="fill:#455a64"></path><path d="M177.3,237.87s7-3.05,9-4.35a12.07,12.07,0,0,1,5.39-2c2.28-.41,8.32-1.06,9.79,0s8.07,3.76,8.07,3.76L200.83,240s-1.43,5.92-3.16,6.45-1.43.36-3.29,0-7.94-3.28-8.12-3.16-6.43,3.5-6.43,3.5Z" style="fill:#ffbf9d"></path><path d="M203.85,237.05H224.6l1-.68a.28.28,0,0,0,0-.46l-1-.62H203.85Z" style="fill:#263238"></path><path d="M214.26,235.83s-1-1.19-2.92,0a37.2,37.2,0,0,0-3.24,2.14,13.55,13.55,0,0,1-1.31-.39L204,238.85l-.3,1.64s3.51,1.18,4.62.59a38.82,38.82,0,0,0,5.64-4.32C214.46,236.13,214.26,235.83,214.26,235.83Z" style="fill:#ffbf9d"></path><path d="M196.68,242.63l1.28-.82L197.5,240s-2.69-.36-3-1.83,0-1.44,0-1.44l3.47.59-1.6-1.35s-2.92-.36-2.69-2.06l.56-.81a25.77,25.77,0,0,1,3.77,1,49.7,49.7,0,0,1,4.26,2.66h0l-2.62-2.49a5.76,5.76,0,0,1-1.92-1.15,1,1,0,0,1,.19-1.56h0a1,1,0,0,1,.64-.16,9.18,9.18,0,0,1,2.79.6c1.12.53,4.46,3,4.95,4.27s.43,1.73-.36,2.53a16,16,0,0,1-2.72,1.89,5,5,0,0,1-1.64,1.81s-.56,2.47-3.93,3.9" style="fill:#ffbf9d"></path><path d="M197.67,246.44s.13,0,.36-.13a6.1,6.1,0,0,0,1-.52,6.52,6.52,0,0,0,1.42-1.13,5.38,5.38,0,0,0,1.27-2.1l-.06.09a4.73,4.73,0,0,0,1.71-1.85l-.06.06c.57-.32,1.14-.67,1.73-1.07a4.94,4.94,0,0,0,1.61-1.58,1.69,1.69,0,0,0,.07-1.25,3.68,3.68,0,0,0-.47-1.16,10.56,10.56,0,0,0-1.77-1.83,23.28,23.28,0,0,0-2.14-1.59,6.1,6.1,0,0,0-1.24-.66,7.45,7.45,0,0,0-1.39-.35l-.71-.1a2.86,2.86,0,0,0-.78,0,1.23,1.23,0,0,0-.6,2.07,4,4,0,0,0,.6.48,6.14,6.14,0,0,0,1.38.69l-.08,0,1.07,1,1.55,1.48.27-.33c-1.31-.88-2.58-1.74-3.91-2.47a9.65,9.65,0,0,0-2.11-.74c-.71-.17-1.41-.33-2.09-.46l-.13,0-.07.1-.56.8,0,0v0a1.49,1.49,0,0,0,.26,1.05,2.35,2.35,0,0,0,.79.66,5.43,5.43,0,0,0,1.81.56l-.1,0,1.62,1.33.13-.29-2.6-.43-.6-.1-.15,0h-.22c-.23.16-.17.28-.2.39a4.82,4.82,0,0,0,.13,1.17,1.68,1.68,0,0,0,.57,1,3.63,3.63,0,0,0,.87.53,6.89,6.89,0,0,0,1.67.46l-.08-.07c.19.7.36,1.28.49,1.76l0-.07-1,.64a1.48,1.48,0,0,0-.3.23,1.48,1.48,0,0,0,.33-.17l1-.59,0,0v0c-.11-.49-.26-1.08-.43-1.78V240h-.07a7,7,0,0,1-1.6-.48,2,2,0,0,1-1.27-1.34,4.39,4.39,0,0,1-.1-1.08.37.37,0,0,1,0-.12s0,0,0-.1v0h0c0-.1,0,.14,0,.11h.11l.14,0,.61.11,2.59.45.61.11-.48-.4-1.6-1.36,0,0h-.05a5.08,5.08,0,0,1-1.67-.53,1.33,1.33,0,0,1-.85-1.33l0,.09c.18-.27.37-.53.56-.8l-.2.08c.68.13,1.37.28,2.07.46a9.31,9.31,0,0,1,2,.71c1.29.72,2.57,1.59,3.86,2.46l.26-.32-1.55-1.48-1.07-1,0,0h-.05a7,7,0,0,1-1.28-.64,4.7,4.7,0,0,1-.54-.44.78.78,0,0,1-.23-.51.83.83,0,0,1,.64-.86,2.85,2.85,0,0,1,.64,0l.69.1a7.82,7.82,0,0,1,1.31.31,6.55,6.55,0,0,1,1.17.62,24.26,24.26,0,0,1,2.1,1.55A9.79,9.79,0,0,1,206,236a3.31,3.31,0,0,1,.43,1,1.4,1.4,0,0,1,0,1,4.75,4.75,0,0,1-1.49,1.47c-.57.4-1.14.76-1.69,1.08l0,0,0,0a4.46,4.46,0,0,1-1.57,1.76l0,0,0,.06a5.23,5.23,0,0,1-1.17,2,6.9,6.9,0,0,1-1.35,1.15C198.15,246.22,197.65,246.41,197.67,246.44Z" style="fill:#9575CD"></path><path d="M195.53,242.73a4.23,4.23,0,0,0-.67-1.36,12.77,12.77,0,0,0-5.51-4.74,4,4,0,0,0-1.45-.46,18.47,18.47,0,0,1,7.63,6.56Z" style="fill:#9575CD"></path><path d="M197.74,237.22c0,.07.39.13,1,.39a3.74,3.74,0,0,1,1.71,1.66,11.78,11.78,0,0,1,.85,2.35c.18.63.3,1,.36,1s0-.42-.07-1.07a7.7,7.7,0,0,0-.77-2.49,3.61,3.61,0,0,0-2-1.74A1.83,1.83,0,0,0,197.74,237.22Z" style="fill:#9575CD"></path><path d="M202.17,236.7a7.67,7.67,0,0,1,.91,1.83c.31,1.09.23,2,.35,2.05a2.9,2.9,0,0,0,.06-2.17,3.12,3.12,0,0,0-.76-1.37C202.44,236.75,202.2,236.66,202.17,236.7Z" style="fill:#9575CD"></path><path d="M105.26,199.49l3.87,5.11,12.31,2.65s9.07,19.28,8.65,28.15a89.39,89.39,0,0,1-1.38,13.27l.08,10.15s3.82,8.44,2.12,12.1-6.48,7-6.48,7l-44.71.56s-3.18,1.83-4.85-2.95c-.72-2,2.06-8.19,1-16.15-1.48-10.69-6.78-23.54-6.78-23.54l-1.91-23.3,14.1-6.84,2.58-6.81,16.87,4.31Z" style="fill:#7E57C2"></path><path d="M180.41,235.35c-.48.05-7.47,2.51-7.47,2.51a10.42,10.42,0,0,0-5.45-.21c-2.59.76-15.78,3.72-15.78,3.72l-17-21.94s-6.81-11.47-13.31-12.18l5.17,32.32s13.79,18.22,20.43,20.5,30-6.35,30.62-9.59l7.8-4.88Z" style="fill:#7E57C2"></path><path d="M123.24,214a1.21,1.21,0,0,0,.13.35l.46,1c.21.42.46.93.72,1.55s.58,1.29.87,2.07a53.8,53.8,0,0,1,1.89,5.55,58.06,58.06,0,0,1,1.47,7,59.88,59.88,0,0,1,.52,7.15,55.45,55.45,0,0,1-.28,5.86c-.07.83-.19,1.58-.27,2.23s-.18,1.23-.26,1.69l-.18,1.06a1.81,1.81,0,0,0,0,.38s.06-.12.12-.36l.25-1c.11-.46.23-1,.33-1.68s.25-1.4.33-2.24a49.23,49.23,0,0,0,.38-5.89,56.59,56.59,0,0,0-.49-7.21,54.69,54.69,0,0,0-1.52-7.07,48.87,48.87,0,0,0-2-5.55c-.31-.78-.66-1.46-.94-2.06s-.55-1.12-.78-1.52l-.53-1A1.47,1.47,0,0,0,123.24,214Z" style="fill:#263238"></path><path d="M81.24,205.74a1.59,1.59,0,0,0,.33.18l1,.43c.85.36,2.09.86,3.65,1.43a108.42,108.42,0,0,0,12.55,3.64l.2.05,0-.21c.09-.39.2-.8.31-1.22.61-2.19,1.33-4.26,1.78-6.25l-.34.08c1.76,2.15,3.35,4.06,4.78,5.54l.11.11.1-.11a16.16,16.16,0,0,0,1.47-2l1-1.55c.56-.84.94-1.25.92-1.27a1.33,1.33,0,0,0-.31.27,9.52,9.52,0,0,0-.74.91c-.31.4-.67.91-1.08,1.5a17.3,17.3,0,0,1-1.49,1.91h.21c-1.37-1.49-2.94-3.43-4.68-5.58l-.26-.32-.09.4c-.46,2-1.19,4-1.8,6.23-.12.42-.23.84-.32,1.24l.25-.16a125.36,125.36,0,0,1-12.54-3.51c-1.57-.53-2.82-1-3.69-1.3A9.12,9.12,0,0,0,81.24,205.74Z" style="fill:#263238"></path><path d="M106,280.29s.07,0,.18-.09.3-.16.52-.31a6.19,6.19,0,0,0,1.57-1.66,9.94,9.94,0,0,0,1.31-3.38,24.45,24.45,0,0,0,.43-4.78c0-7.08.11-16.87-.65-27.67-.39-5.39-1-10.52-1.8-15.14a104.65,104.65,0,0,0-2.81-12.13,74.34,74.34,0,0,0-4-10.74s0,.07,0,.2.13.33.21.56l.83,2.12c.38.91.75,2.07,1.21,3.39s.92,2.86,1.43,4.55a111.34,111.34,0,0,1,2.72,12.12c.77,4.61,1.37,9.72,1.76,15.1.76,10.77.71,20.57.78,27.64a24.89,24.89,0,0,1-.38,4.73,9.74,9.74,0,0,1-1.21,3.34A6.92,6.92,0,0,1,106,280.29Z" style="fill:#263238"></path><path d="M93.37,265.06a5.81,5.81,0,0,0,1.16-.11c.75-.1,1.82-.27,3.13-.53a74.36,74.36,0,0,0,19.71-6.91c1.19-.62,2.13-1.15,2.77-1.54a6.43,6.43,0,0,0,1-.63,5.57,5.57,0,0,0-1.06.49c-.66.34-1.62.83-2.82,1.41a90.12,90.12,0,0,1-9.62,4,92.18,92.18,0,0,1-10,2.87c-1.3.29-2.36.51-3.09.66A6.57,6.57,0,0,0,93.37,265.06Z" style="fill:#263238"></path><g style="opacity:0.30000000000000004"><path d="M127.2,223.41a16.36,16.36,0,0,1,2.11,20l0-.13A43.09,43.09,0,0,0,127.2,223.41Z"></path></g><path d="M90.86,258.77s-6.79,0-7.33.57S79,263.66,79,263.66a25.47,25.47,0,0,1-1.56,3s-1.2,2-2.3,2.34a5.16,5.16,0,0,1-1.83.3L71.62,278s2.65,2,4,1.59,8.11-5.71,8.11-5.71l1.73-.9s7.19-.9,7.18-3.14l-.1-.61-7.16.54-2.54.86,4.26-2.44s6.56-1.47,7.14-1.74,1.12-1.35.78-1.83l-1.43.06s1.34-1.29,1.13-2.24l-6.43,0S91.77,260,90.86,258.77Z" style="fill:#ffbf9d"></path><path d="M94.32,264.46a2.51,2.51,0,0,1-.59,0H92.14c-1.35,0-3.21.08-5.26.18-.26,0-.52,0-.74.06a2.16,2.16,0,0,0-.66.23c-.39.24-.79.51-1.16.75-.73.5-1.38,1-1.9,1.4a15.58,15.58,0,0,0-1.19,1c-.27.26-.4.42-.42.4a1.77,1.77,0,0,1,.34-.48,10.1,10.1,0,0,1,1.14-1.13,23.62,23.62,0,0,1,1.88-1.46c.37-.26.74-.52,1.18-.78a2.29,2.29,0,0,1,.73-.27,7.19,7.19,0,0,1,.78-.06c2.06-.1,3.93-.14,5.28-.1.67,0,1.22.05,1.6.09A2.1,2.1,0,0,1,94.32,264.46Z" style="fill:#9575CD"></path><path d="M88.54,262.72s-.54-.09-1.41-.12a7.46,7.46,0,0,0-5.94,2.62c-.56.65-.82,1.13-.86,1.11a3.51,3.51,0,0,1,.7-1.24,7,7,0,0,1,6.11-2.69A3.6,3.6,0,0,1,88.54,262.72Z" style="fill:#9575CD"></path><path d="M44.4,264.74a12.92,12.92,0,0,1-1.83-10.59c1.19-5.13,15-29.36,21.27-38.47,2.25-3.27,6.64-4.72,6.64-4.72s8.8,6.86,9.62,16.64l-7.41,9.85L61.46,257Z" style="fill:#7E57C2"></path><path d="M71.14,267.75l-10.72-13.5s-15.72,10.17-16,10.49c0,0,13.05,11.11,27.22,14.41l1.93-9.94Z" style="fill:#7E57C2"></path><path d="M74.5,232.9a19,19,0,0,1,.08-3,25.79,25.79,0,0,0-.44-7,11.77,11.77,0,0,0-3.37-6,14.76,14.76,0,0,0-2.4-1.64,2.09,2.09,0,0,1,.78.22A7.45,7.45,0,0,1,71,216.66a11.44,11.44,0,0,1,3.63,6.16A22.74,22.74,0,0,1,75,230,14.31,14.31,0,0,1,74.5,232.9Z" style="fill:#263238"></path><path d="M46.82,256.48A5.75,5.75,0,0,1,48.73,255a11.64,11.64,0,0,1,5.66-1.44,20,20,0,0,1,3.23.09,7.51,7.51,0,0,1,2.55.78,5.09,5.09,0,0,1,1.41,1.11c.27.34.39.53.36.55A11.47,11.47,0,0,0,60,254.75a8,8,0,0,0-2.45-.63,23.15,23.15,0,0,0-3.15-.05,12.56,12.56,0,0,0-5.51,1.25C47.59,256,46.87,256.55,46.82,256.48Z" style="fill:#263238"></path></g></svg>