<svg width="182" height="201" viewBox="0 0 182 201" fill="none" xmlns="http://www.w3.org/2000/svg">




<path d="M116.557 76.6545L95.0923 63.8439C94.9264 63.7207 94.7318 63.645 94.5284 63.6247C94.325 63.6044 94.1201 63.6401 93.9344 63.7281L92.3904 64.6503C92.2206 64.7725 92.0856 64.9396 91.9994 65.134C91.9132 65.3285 91.8789 65.5433 91.9002 65.7561V126.519C91.9317 127.112 92.0977 127.688 92.3847 128.201C92.6718 128.714 93.0717 129.15 93.5522 129.474L115.013 142.268C115.179 142.392 115.374 142.468 115.577 142.489C115.78 142.511 115.985 142.476 116.171 142.388L117.715 141.462C117.883 141.339 118.016 141.172 118.101 140.979C118.186 140.785 118.219 140.571 118.198 140.36V79.6086C118.168 79.0176 118.004 78.4421 117.719 77.9289C117.434 77.4156 117.036 76.9791 116.557 76.6545Z" fill="#2A2440"/>
<path d="M96.5249 127.562L94.981 128.485V133.539C94.9888 133.687 95.0302 133.831 95.102 133.959C95.1738 134.087 95.2738 134.196 95.394 134.277L96.1158 134.708C96.2438 134.775 96.3853 134.81 96.5288 134.81C96.6723 134.81 96.8138 134.775 96.9418 134.708L97.6636 134.277C97.9201 134.106 98.1184 133.856 98.231 133.563L99.6245 129.411L96.5249 127.562Z" fill="#2A2440"/>
<path d="M94.981 133.538C94.9888 133.686 95.0302 133.83 95.102 133.959C95.1738 134.087 95.2738 134.196 95.394 134.277L96.1158 134.708C96.1657 134.739 96.2217 134.758 96.2798 134.764C96.3378 134.77 96.3963 134.762 96.4509 134.74C96.5055 134.719 96.5548 134.686 96.595 134.642C96.6352 134.598 96.6654 134.546 96.6832 134.488L98.0689 130.333L94.981 128.484V133.538Z" fill="#3D3559"/>
<path d="M112.011 136.779L110.467 137.705V142.755C110.474 142.904 110.515 143.048 110.586 143.177C110.657 143.306 110.756 143.416 110.876 143.498L111.602 143.929C111.729 143.996 111.87 144.031 112.013 144.031C112.156 144.031 112.296 143.996 112.424 143.929L113.149 143.498C113.406 143.327 113.604 143.077 113.717 142.783L115.106 138.628L112.011 136.779Z" fill="#2A2440"/>
<path d="M110.467 142.755C110.474 142.903 110.515 143.048 110.586 143.177C110.657 143.306 110.756 143.416 110.876 143.498L111.602 143.929C111.651 143.96 111.708 143.979 111.766 143.985C111.824 143.99 111.882 143.982 111.937 143.961C111.991 143.94 112.041 143.906 112.081 143.863C112.121 143.819 112.151 143.767 112.169 143.709L113.562 139.553L110.475 137.705L110.467 142.755Z" fill="#3D3559"/>
<path d="M93.6526 64.8145L115.114 77.5891C115.594 77.9135 115.994 78.3503 116.281 78.8642C116.568 79.3781 116.734 79.9547 116.766 80.5473V141.311C116.807 141.524 116.782 141.745 116.695 141.943C116.608 142.142 116.463 142.307 116.281 142.415C116.099 142.524 115.888 142.571 115.679 142.55C115.47 142.529 115.272 142.44 115.114 142.297L93.6526 129.498C93.1727 129.174 92.7733 128.738 92.4869 128.225C92.2005 127.712 92.0352 127.136 92.0044 126.544V65.7966C91.9631 65.5835 91.9876 65.3624 92.0742 65.1645C92.1609 64.9665 92.3054 64.8017 92.4875 64.6933C92.6695 64.5848 92.8799 64.5382 93.0889 64.5599C93.298 64.5817 93.4951 64.6707 93.6526 64.8145Z" fill="#3D3559"/>
<path d="M62.311 148.455L85.5247 162.315L118.025 142.91L116.478 141.984L93.2639 128.123L62.311 146.606V148.455Z" fill="#4F4670"/>
<path d="M85.5244 162.316V160.468L118.025 141.062V142.911L85.5244 162.316Z" fill="#2A2440"/>
<path d="M115.136 122.014V123.866L83.1818 142.78L62.5112 127.569V125.718L91.9198 108.127L115.136 122.014Z" fill="#2A2440"/>
<path d="M115.106 121.991L82.6321 141.209L69.5008 134.543L62.4873 125.688L91.8923 108.131L115.106 121.991Z" fill="#4F4670"/>
<path d="M115.106 101.665V103.51L83.4309 122.341L62.4873 107.206V105.362L91.8923 87.8008L115.106 101.665Z" fill="#2A2440"/>
<path d="M115.136 101.52L83.4308 120.526L70.9985 113.811L60.0142 106.108L91.9095 87.834L115.136 101.52Z" fill="#4F4670"/>
<path opacity="0.2" d="M116.658 85.9555L118.21 85.0334V79.4844L116.654 80.4105L116.658 85.9555Z" fill="black"/>
<path d="M65.5835 146.02L64.0396 146.942V151.996C64.0474 152.144 64.0888 152.288 64.1606 152.416C64.2324 152.544 64.3324 152.653 64.4526 152.734L65.1744 153.165C65.3024 153.232 65.4439 153.267 65.5874 153.267C65.7309 153.267 65.8724 153.232 66.0004 153.165L66.7222 152.734C66.9777 152.564 67.1759 152.315 67.2896 152.024L68.6831 147.868L65.5835 146.02Z" fill="#2A2440"/>
<path d="M64.0352 151.997C64.043 152.145 64.0844 152.289 64.1562 152.418C64.228 152.546 64.328 152.655 64.4482 152.736L65.17 153.167C65.2199 153.198 65.2759 153.217 65.334 153.223C65.392 153.229 65.4505 153.221 65.5051 153.199C65.5597 153.178 65.609 153.145 65.6492 153.101C65.6894 153.057 65.7196 153.005 65.7374 152.947L67.1308 148.792L64.0429 146.943L64.0352 151.997Z" fill="#3D3559"/>
<path d="M121.873 76.714C121.855 76.502 121.782 76.2989 121.663 76.1256C121.543 75.9523 121.381 75.8151 121.194 75.7279L98.1844 61.9872C97.6729 61.7195 97.1076 61.5801 96.5343 61.5801C95.961 61.5801 95.3958 61.7195 94.8842 61.9872L59.4962 83.1213C59.3085 83.2084 59.1466 83.3456 59.0272 83.519C58.9078 83.6923 58.8352 83.8953 58.8169 84.1073V85.9556C58.8352 86.1676 58.9078 86.3707 59.0272 86.544C59.1466 86.7173 59.3085 86.8546 59.4962 86.9417L82.5054 100.678C83.0164 100.948 83.5819 101.088 84.1555 101.088C84.7291 101.088 85.2946 100.948 85.8056 100.678L121.194 79.5484C121.381 79.4612 121.543 79.324 121.663 79.1507C121.782 78.9774 121.855 78.7743 121.873 78.5623V76.714Z" fill="#3D3559"/>
<path d="M82.5053 98.8301L59.4962 85.0933C58.5853 84.5464 58.5853 83.6642 59.4962 83.1213L94.8841 61.9872C95.3957 61.7195 95.961 61.5801 96.5343 61.5801C97.1076 61.5801 97.6728 61.7195 98.1844 61.9872L121.194 75.7279C122.108 76.2748 122.108 77.1531 121.194 77.7L85.8056 98.8301C85.2945 99.0996 84.7291 99.2401 84.1554 99.2401C83.5818 99.2401 83.0163 99.0996 82.5053 98.8301Z" fill="#4F4670"/>
<path opacity="0.1" d="M116.634 82.1484L105.82 96.0365L87.2797 107.145L87.2759 99.7395L116.634 82.1484Z" fill="black"/>
<path opacity="0.1" d="M115.136 103.322L105.851 116.305L87.2759 127.486V120.014L115.136 103.322Z" fill="black"/>
<path opacity="0.1" d="M115.112 123.645L105.86 136.583L87.353 147.677V140.28L115.112 123.645Z" fill="black"/>
<path d="M64.8736 146.367L63.3296 147.289V152.343C63.3374 152.491 63.3789 152.635 63.4506 152.764C63.5224 152.892 63.6224 153.001 63.7426 153.082L64.4644 153.513C64.5925 153.58 64.7339 153.615 64.8774 153.615C65.0209 153.615 65.1624 153.58 65.2904 153.513L66.0123 153.082C66.2687 152.911 66.467 152.661 66.5797 152.367L67.9731 148.216L64.8736 146.367Z" fill="#2A2440"/>
<path d="M63.3301 152.341C63.3379 152.489 63.3794 152.633 63.4511 152.761C63.5229 152.89 63.6229 152.999 63.7431 153.08L64.4649 153.511C64.5148 153.542 64.5708 153.561 64.6289 153.567C64.6869 153.572 64.7454 153.564 64.8 153.543C64.8546 153.522 64.9039 153.488 64.9441 153.445C64.9843 153.401 65.0145 153.349 65.0323 153.291L66.418 149.135L63.3301 147.287V152.341Z" fill="#3D3559"/>
<path d="M78.8154 161.56C78.8225 161.708 78.8632 161.853 78.9343 161.982C79.0054 162.111 79.1048 162.22 79.2246 162.302L79.9503 162.733C80.0001 162.765 80.0562 162.784 80.1142 162.789C80.1723 162.795 80.2308 162.787 80.2854 162.766C80.34 162.745 80.3892 162.711 80.4295 162.667C80.4697 162.624 80.4999 162.571 80.5177 162.514L81.9111 158.358L78.8232 156.51L78.8154 161.56Z" fill="#3D3559"/>
<path d="M30.8369 166.673L54.0506 180.534L86.5513 161.128L85.0035 160.202L61.7898 146.342L30.8369 164.825V166.673Z" fill="#4F4670"/>
<path d="M54.0503 181.236V179.388L86.4275 159.934L86.827 161.551L54.0503 181.236Z" fill="#2A2440"/>
<path d="M83.4556 140.796V142.644L54.0506 160.202L30.8369 146.341V144.493L60.2419 126.936L83.4556 140.796Z" fill="#2A2440"/>
<path d="M83.4556 140.796L54.0506 158.353L30.8369 144.493L60.2419 126.936L83.4556 140.796Z" fill="#4F4670"/>
<path d="M83.4556 120.47V122.314L54.0506 139.875L30.8369 126.011V124.167L60.2419 106.605L83.4556 120.47Z" fill="#2A2440"/>
<path d="M83.4556 120.47L54.0506 138.027L30.8369 124.167L60.2419 106.605L83.4556 120.47Z" fill="#4F4670"/>
<path d="M53.9499 113.918L32.4886 101.124C32.323 101 32.1286 100.923 31.9253 100.902C31.7219 100.881 31.5167 100.916 31.3307 101.004C31.0527 101.168 30.0646 101.762 29.7867 101.926C29.6176 102.049 29.4834 102.216 29.3979 102.41C29.3124 102.605 29.2787 102.819 29.3003 103.032V163.779C29.3319 164.371 29.4979 164.947 29.7849 165.461C30.0719 165.974 30.4719 166.41 30.9524 166.733L52.4137 179.532C52.5793 179.656 52.7737 179.732 52.9771 179.753C53.1804 179.774 53.3856 179.739 53.5716 179.652C53.8496 179.484 54.8454 178.893 55.1156 178.722C55.2855 178.6 55.4209 178.434 55.5077 178.24C55.5946 178.047 55.6298 177.832 55.6097 177.62V116.876C55.5779 116.283 55.411 115.706 55.1226 115.192C54.8341 114.678 54.4323 114.241 53.9499 113.918Z" fill="#2A2440"/>
<path opacity="0.2" d="M54.0507 123.245L55.6024 122.319V116.77L54.0469 117.696L54.0507 123.245Z" fill="black"/>
<path d="M33.9326 164.824L32.3887 165.746V170.8C32.3965 170.948 32.438 171.092 32.5097 171.221C32.5815 171.349 32.6815 171.458 32.8017 171.539L33.5235 171.97C33.6515 172.037 33.793 172.072 33.9365 172.072C34.08 172.072 34.2215 172.037 34.3495 171.97L35.0713 171.539C35.3268 171.368 35.525 171.12 35.6387 170.828L37.0322 166.673L33.9326 164.824Z" fill="#2A2440"/>
<path d="M32.3848 170.8C32.3926 170.948 32.434 171.092 32.5058 171.22C32.5776 171.349 32.6776 171.458 32.7978 171.539L33.5196 171.97C33.5695 172.001 33.6255 172.02 33.6836 172.026C33.7416 172.031 33.8001 172.023 33.8547 172.002C33.9093 171.981 33.9586 171.947 33.9988 171.904C34.039 171.86 34.0692 171.808 34.087 171.75L35.4804 167.594L32.3925 165.746L32.3848 170.8Z" fill="#3D3559"/>
<path d="M49.4073 174.066L47.8633 174.989V180.043C47.8704 180.19 47.9111 180.334 47.9822 180.463C48.0533 180.591 48.1528 180.7 48.2724 180.781L48.9981 181.212C49.1255 181.279 49.2663 181.314 49.4092 181.314C49.5521 181.314 49.6929 181.279 49.8203 181.212L50.5459 180.781C50.8004 180.609 50.9983 180.361 51.1134 180.07L52.5029 175.915L49.4073 174.066Z" fill="#2A2440"/>
<path d="M47.8628 180.023C47.8699 180.17 47.9106 180.314 47.9817 180.443C48.0528 180.571 48.1523 180.68 48.272 180.761L48.9976 181.192C49.0475 181.224 49.1036 181.243 49.1616 181.248C49.2196 181.254 49.2782 181.246 49.3328 181.225C49.3874 181.204 49.4366 181.17 49.4768 181.126C49.5171 181.083 49.5472 181.03 49.565 180.973L50.9546 176.817L47.8667 174.969L47.8628 180.023Z" fill="#3D3559"/>
<path d="M30.9368 102.049L52.4019 114.843C52.882 115.168 53.2814 115.605 53.5677 116.119C53.8541 116.633 54.0193 117.209 54.0501 117.802V180.533C54.0501 180.533 52.8574 179.803 52.4019 179.531L30.9407 166.733C30.4602 166.409 30.0602 165.973 29.7732 165.46C29.4861 164.946 29.3201 164.37 29.2886 163.778V103.031C29.2473 102.818 29.2717 102.597 29.3584 102.399C29.4451 102.201 29.5896 102.036 29.7716 101.928C29.9537 101.819 30.1641 101.773 30.3731 101.794C30.5821 101.816 30.7793 101.905 30.9368 102.049Z" fill="#3D3559"/>
<path opacity="0.2" d="M52.4019 114.843L30.9368 102.049C30.7793 101.905 30.5821 101.816 30.3731 101.794C30.1641 101.773 29.9537 101.819 29.7716 101.928C29.5896 102.036 29.4451 102.201 29.3584 102.399C29.2717 102.597 29.2473 102.818 29.2886 103.031V108.456L54.0501 123.227V117.802C54.0193 117.209 53.8541 116.633 53.5677 116.119C53.2814 115.605 52.882 115.168 52.4019 114.843Z" fill="black"/>
<path d="M90.2223 95.5187C90.204 95.3067 90.1314 95.1036 90.012 94.9303C89.8926 94.757 89.7307 94.6197 89.543 94.5326L66.5338 80.7919C66.0223 80.5242 65.457 80.3848 64.8837 80.3848C64.3104 80.3848 63.7451 80.5242 63.2336 80.7919L30.6075 103.225C30.4197 103.312 33.8384 104.127 30.8072 103.225C34.0381 104.127 30.4262 103.013 30.4078 103.225L29.4092 104.205C29.4275 104.417 31.7413 103.258 29.7088 104.401C29.521 104.314 32.0409 103.454 29.7088 104.401L50.8547 119.483C51.3658 119.753 51.9312 119.893 52.5049 119.893C53.0785 119.893 53.644 119.753 54.155 119.483L89.543 98.353C89.7307 98.2659 89.8926 98.1287 90.012 97.9553C90.1314 97.782 90.204 97.579 90.2223 97.367V95.5187Z" fill="#3D3559"/>
<path d="M50.8545 117.635L32.0553 102.245C31.1443 101.698 30.4453 99.6999 31.3563 99.157L63.2334 80.7919C63.7449 80.5242 64.3102 80.3848 64.8835 80.3848C65.4568 80.3848 66.0221 80.5242 66.5336 80.7919L89.5428 94.5326C90.4576 95.0795 91.2871 95.5713 90.3723 96.1182L54.1548 117.635C53.6438 117.904 53.0783 118.045 52.5047 118.045C51.931 118.045 51.3656 117.904 50.8545 117.635Z" fill="#4F4670"/>
<path opacity="0.1" d="M87.0768 99.7949L87.2765 99.8439V105.186V107.147L74.0409 114.702L55.4257 125.772L55.4219 118.392L87.0768 99.7949Z" fill="black"/>
<path opacity="0.1" d="M87.276 120.086V127.487L55.6211 146.357V138.271L87.276 120.086Z" fill="black"/>
<path opacity="0.1" d="M87.3509 140.279V147.68L55.6211 166.649V158.487L87.3509 140.279Z" fill="black"/>
<path d="M53.9557 104.862L32.4894 90.3476C32.3237 90.207 32.1293 90.1204 31.9259 90.0966C31.7224 90.0727 31.5172 90.1124 31.3311 90.2117C31.0532 90.3974 30.0648 91.0721 29.7868 91.2578C29.6177 91.397 29.4834 91.5867 29.3979 91.8073C29.3124 92.0279 29.2787 92.2712 29.3003 92.5122V161.423C29.3319 162.095 29.4979 162.748 29.785 163.33C30.0721 163.913 30.4722 164.407 30.9528 164.774L52.4191 179.293C52.5848 179.433 52.7792 179.52 52.9826 179.544C53.1861 179.568 53.3913 179.528 53.5774 179.429C53.8554 179.238 54.8514 178.568 55.1217 178.373C55.2916 178.236 55.427 178.047 55.5139 177.827C55.6008 177.608 55.636 177.365 55.6159 177.124V108.217C55.5841 107.544 55.4171 106.889 55.1286 106.306C54.8401 105.723 54.4383 105.228 53.9557 104.862Z" fill="#2A2440"/>
<path opacity="0.2" d="M54.0561 115.441L55.6082 114.39V108.096L54.0522 109.146L54.0561 115.441Z" fill="black"/>
<path d="M33.9335 162.609L32.3892 163.655V169.389C32.397 169.557 32.4385 169.72 32.5102 169.865C32.582 170.011 32.6821 170.135 32.8023 170.226L33.5243 170.715C33.6523 170.791 33.7938 170.831 33.9374 170.831C34.0809 170.831 34.2224 170.791 34.3505 170.715L35.0725 170.226C35.328 170.033 35.5262 169.751 35.64 169.42L37.0338 164.706L33.9335 162.609Z" fill="#2A2440"/>
<path d="M32.3853 169.387C32.3931 169.555 32.4345 169.719 32.5063 169.864C32.5781 170.01 32.6782 170.134 32.7984 170.225L33.5203 170.714C33.5702 170.75 33.6263 170.771 33.6844 170.778C33.7424 170.784 33.8009 170.775 33.8556 170.751C33.9102 170.727 33.9594 170.689 33.9997 170.639C34.0399 170.59 34.0701 170.53 34.0879 170.465L35.4817 165.751L32.393 163.654L32.3853 169.387Z" fill="#3D3559"/>
<path d="M49.412 173.094L47.8677 174.14V179.873C47.8747 180.041 47.9155 180.204 47.9866 180.349C48.0578 180.495 48.1572 180.619 48.2769 180.711L49.0028 181.2C49.1302 181.276 49.271 181.315 49.4139 181.315C49.5569 181.315 49.6977 181.276 49.8251 181.2L50.551 180.711C50.8055 180.516 51.0034 180.235 51.1185 179.905L52.5084 175.19L49.412 173.094Z" fill="#2A2440"/>
<path d="M47.8677 179.85C47.8747 180.018 47.9155 180.181 47.9866 180.327C48.0578 180.472 48.1572 180.596 48.2769 180.688L49.0028 181.177C49.0527 181.213 49.1087 181.234 49.1668 181.241C49.2248 181.247 49.2834 181.238 49.338 181.214C49.3926 181.19 49.4419 181.152 49.4821 181.102C49.5223 181.053 49.5525 180.993 49.5703 180.928L50.9602 176.214L47.8715 174.117L47.8677 179.85Z" fill="#3D3559"/>
<path d="M30.9372 91.3982L52.4074 105.912C52.8876 106.28 53.287 106.776 53.5734 107.359C53.8599 107.942 54.0252 108.596 54.056 109.268V180.429C54.056 180.429 52.863 179.601 52.4074 179.293L30.9411 164.774C30.4605 164.407 30.0604 163.913 29.7733 163.33C29.4862 162.748 29.3201 162.095 29.2886 161.423V92.5123C29.2473 92.2706 29.2717 92.0198 29.3584 91.7953C29.4451 91.5707 29.5897 91.3838 29.7718 91.2607C29.9539 91.1377 30.1643 91.0848 30.3734 91.1094C30.5824 91.1341 30.7797 91.2351 30.9372 91.3982Z" fill="#3D3559"/>
<path opacity="0.2" d="M52.4074 105.912L30.9372 91.3982C30.7797 91.2351 30.5824 91.1341 30.3734 91.1094C30.1643 91.0848 29.9539 91.1377 29.7718 91.2607C29.5897 91.3838 29.4451 91.5707 29.3584 91.7953C29.2717 92.0198 29.2473 92.2706 29.2886 92.5123V98.6666L54.056 115.422V109.268C54.0252 108.596 53.8599 107.942 53.5734 107.359C53.287 106.776 52.8876 106.28 52.4074 105.912Z" fill="black"/>
<path d="M116.557 15.0763L95.0923 2.26577C94.9264 2.14253 94.7318 2.06691 94.5284 2.04657C94.325 2.02624 94.1201 2.06193 93.9344 2.15L92.3904 3.07217C92.2206 3.19441 92.0856 3.36145 91.9994 3.55591C91.9132 3.75038 91.8789 3.96517 91.9002 4.17797V64.9414C91.9317 65.5334 92.0977 66.1094 92.3847 66.6227C92.6718 67.136 93.0717 67.572 93.5522 67.8955L115.013 80.6901C115.179 80.814 115.374 80.8903 115.577 80.9114C115.78 80.9324 115.985 80.8974 116.171 80.8099L117.715 79.8837C117.883 79.7609 118.016 79.5941 118.101 79.4004C118.186 79.2068 118.219 78.9933 118.198 78.7819V18.0305C118.168 17.4394 118.004 16.864 117.719 16.3508C117.434 15.8375 117.036 15.4009 116.557 15.0763Z" fill="#2A2440"/>
<path d="M96.5249 65.9824L94.981 66.9046V71.9586C94.9888 72.1066 95.0302 72.2506 95.102 72.379C95.1738 72.5073 95.2738 72.6163 95.394 72.6971L96.1158 73.1282C96.2438 73.1953 96.3853 73.2302 96.5288 73.2302C96.6723 73.2302 96.8138 73.1953 96.9418 73.1282L97.6636 72.6971C97.9201 72.5258 98.1184 72.276 98.231 71.9825L99.6245 67.8308L96.5249 65.9824Z" fill="#2A2440"/>
<path d="M94.981 71.9583C94.9888 72.1063 95.0302 72.2503 95.102 72.3786C95.1738 72.507 95.2738 72.616 95.394 72.6968L96.1158 73.1279C96.1657 73.1592 96.2217 73.1783 96.2798 73.1839C96.3378 73.1895 96.3963 73.1814 96.4509 73.1603C96.5055 73.1392 96.5548 73.1055 96.595 73.0619C96.6352 73.0183 96.6654 72.9658 96.6832 72.9084L98.0689 68.7526L94.981 66.9043V71.9583Z" fill="#3D3559"/>
<path d="M112.011 75.2012L110.467 76.1273V81.1773C110.474 81.3256 110.515 81.4701 110.586 81.5991C110.657 81.7281 110.756 81.8379 110.876 81.9198L111.602 82.351C111.729 82.4179 111.87 82.4528 112.013 82.4528C112.156 82.4528 112.296 82.4179 112.424 82.351L113.149 81.9198C113.406 81.7485 113.604 81.4987 113.717 81.2052L115.106 77.0495L112.011 75.2012Z" fill="#2A2440"/>
<path d="M110.467 81.175C110.474 81.3233 110.515 81.4678 110.586 81.5967C110.657 81.7257 110.756 81.8356 110.876 81.9175L111.602 82.3486C111.651 82.3799 111.708 82.399 111.766 82.4046C111.824 82.4102 111.882 82.4022 111.937 82.381C111.991 82.3599 112.041 82.3262 112.081 82.2826C112.121 82.239 112.151 82.1865 112.169 82.1291L113.562 77.9733L110.475 76.125L110.467 81.175Z" fill="#3D3559"/>
<path d="M93.6526 3.23442L115.114 16.0091C115.594 16.3334 115.994 16.7702 116.281 17.2841C116.568 17.798 116.734 18.3746 116.766 18.9672V79.7306C116.807 79.944 116.782 80.1653 116.695 80.3634C116.608 80.5615 116.463 80.7265 116.281 80.8353C116.099 80.944 115.888 80.9911 115.679 80.9698C115.47 80.9485 115.272 80.86 115.114 80.7166L93.6526 67.918C93.1726 67.5943 92.7733 67.1581 92.4869 66.6449C92.2005 66.1316 92.0352 65.5557 92.0044 64.9639V4.21648C91.9631 4.00342 91.9875 3.78235 92.0742 3.58441C92.1609 3.38647 92.3054 3.22165 92.4874 3.11318C92.6695 3.00472 92.8799 2.95807 93.0889 2.97982C93.2979 3.00158 93.4951 3.09062 93.6526 3.23442Z" fill="#3D3559"/>
<path d="M98.8499 40.935C98.8123 40.934 98.7766 40.9181 98.75 40.8906C98.7234 40.8632 98.7081 40.8262 98.7071 40.7873V22.5595L81.897 32.5956C81.8813 32.6061 81.8636 32.6132 81.8451 32.6163C81.8266 32.6194 81.8076 32.6185 81.7895 32.6136C81.7713 32.6087 81.7544 32.6 81.7396 32.588C81.7249 32.5759 81.7128 32.5608 81.704 32.5437C81.6943 32.5269 81.6879 32.5084 81.6851 32.489C81.6824 32.4697 81.6833 32.45 81.688 32.431C81.6927 32.4121 81.7009 32.3943 81.7123 32.3787C81.7237 32.3631 81.7379 32.35 81.7542 32.3401L98.7997 22.1763C98.8211 22.1625 98.8459 22.1551 98.8711 22.1551C98.8964 22.1551 98.9211 22.1625 98.9425 22.1763C98.9639 22.1895 98.9815 22.2082 98.9937 22.2306C99.0059 22.253 99.0122 22.2783 99.012 22.304V40.7873C99.0122 40.8085 99.008 40.8295 98.9996 40.8489C98.9913 40.8682 98.979 40.8855 98.9636 40.8995C98.9482 40.9135 98.9301 40.924 98.9105 40.9301C98.8909 40.9362 98.8702 40.9379 98.8499 40.935Z" fill="#3D3559"/>
<path d="M95.7542 36.3122H95.7117C95.6749 36.3036 95.6429 36.2803 95.6227 36.2474C95.6024 36.2145 95.5956 36.1746 95.6036 36.1365L98.4832 23.2381L92.7704 33.4698C92.7616 33.4869 92.7495 33.5019 92.7349 33.514C92.7203 33.5261 92.7035 33.5351 92.6855 33.5403C92.6674 33.5455 92.6486 33.5469 92.63 33.5444C92.6114 33.5419 92.5936 33.5356 92.5774 33.5257C92.5608 33.5162 92.5462 33.5033 92.5345 33.4878C92.5227 33.4724 92.5141 33.4546 92.509 33.4357C92.504 33.4167 92.5027 33.3969 92.5051 33.3774C92.5076 33.3579 92.5138 33.3391 92.5234 33.3221L98.6993 22.2321C98.717 22.2017 98.7445 22.1786 98.7769 22.1669C98.8094 22.1552 98.8447 22.1557 98.8769 22.1683C98.9086 22.1816 98.9346 22.2063 98.9501 22.2378C98.9657 22.2693 98.9699 22.3055 98.9618 22.3399L95.8738 36.2044C95.8669 36.2329 95.8517 36.2584 95.8303 36.2777C95.809 36.297 95.7824 36.309 95.7542 36.3122Z" fill="#3D3559"/>
<path d="M89.5667 31.7094C89.5471 31.7095 89.5276 31.7052 89.5097 31.697C89.4917 31.6887 89.4756 31.6766 89.4625 31.6615C89.4361 31.6338 89.4213 31.5965 89.4213 31.5577C89.4213 31.5188 89.4361 31.4815 89.4625 31.4539L98.7495 22.2122C98.7763 22.1849 98.8123 22.1696 98.8499 22.1696C98.8875 22.1696 98.9235 22.1849 98.9503 22.2122C98.9769 22.2405 98.9918 22.2785 98.9918 22.318C98.9918 22.3575 98.9769 22.3955 98.9503 22.4238L89.6632 31.6615C89.651 31.6756 89.6362 31.6872 89.6196 31.6954C89.6031 31.7036 89.5851 31.7084 89.5667 31.7094Z" fill="#3D3559"/>
<path d="M98.8499 37.9849C98.8124 37.9839 98.7766 37.968 98.75 37.9405C98.7234 37.913 98.7081 37.876 98.7071 37.8372C98.7071 35.418 96.0978 35.2543 95.9858 35.2503C95.9648 35.2487 95.9443 35.2426 95.9256 35.2322C95.907 35.2219 95.8907 35.2077 95.8778 35.1904C95.8656 35.1734 95.8573 35.1539 95.8533 35.1332C95.8493 35.1125 95.8497 35.0911 95.8546 35.0706C95.9498 34.5764 95.9175 34.065 95.761 33.5878C95.6045 33.1105 95.3293 32.6844 94.963 32.352C94.829 32.2139 94.6682 32.1069 94.4912 32.038C94.3141 31.9692 94.125 31.9401 93.9362 31.9528C93.8355 31.9705 93.7396 32.0103 93.6551 32.0695C93.5705 32.1287 93.4992 32.206 93.446 32.2962C93.4299 32.3253 93.4047 32.3479 93.3745 32.3602C93.3444 32.3725 93.311 32.3739 93.28 32.364C93.2492 32.3542 93.2225 32.3338 93.2043 32.3063C93.186 32.2787 93.1774 32.2456 93.1797 32.2123C93.1797 32.1205 93.3379 29.9688 91.5083 29.7572C91.4848 29.7542 91.4624 29.7454 91.4429 29.7315C91.4234 29.7176 91.4074 29.699 91.3964 29.6773C91.3859 29.6564 91.3804 29.6331 91.3804 29.6095C91.3804 29.5859 91.3859 29.5626 91.3964 29.5416C91.3964 29.5416 92.207 27.9727 91.8943 27.2023C91.8582 27.1118 91.802 27.0314 91.7302 26.9676C91.6585 26.9038 91.5732 26.8583 91.4813 26.835C91.463 26.83 91.4459 26.8212 91.431 26.8091C91.4161 26.797 91.4038 26.7819 91.3948 26.7647C91.3857 26.7475 91.3802 26.7286 91.3785 26.7091C91.3768 26.6896 91.3789 26.67 91.3848 26.6514C91.3964 26.6143 91.4213 26.5834 91.4543 26.5648C91.4874 26.5462 91.526 26.5415 91.5624 26.5516C91.6953 26.5869 91.8184 26.6541 91.9217 26.7477C92.0249 26.8414 92.1055 26.9588 92.1568 27.0905C92.454 27.821 91.9522 29.0306 91.7361 29.4857C93.1565 29.7692 93.419 31.1544 93.4576 31.8411C93.5845 31.7478 93.7293 31.6838 93.8822 31.6534C94.1142 31.6302 94.3483 31.6616 94.5668 31.7452C94.7854 31.8289 94.9829 31.9626 95.1444 32.1365C95.5279 32.4863 95.8215 32.9291 95.9986 33.4252C96.1758 33.9213 96.2311 34.4552 96.1595 34.9788C96.7849 35.0627 98.9927 35.5138 98.9889 37.8451C98.9869 37.8822 98.9716 37.9172 98.9458 37.9431C98.9201 37.969 98.8858 37.9839 98.8499 37.9849Z" fill="#3D3559"/>
<path d="M98.85 34.0009C98.814 34.001 98.7793 33.9871 98.7528 33.9619C98.7264 33.9368 98.7101 33.9022 98.7071 33.8651C98.6454 33.0188 98.1706 31.925 97.5723 31.6535C97.4538 31.5988 97.3223 31.5809 97.1941 31.6022C97.066 31.6235 96.9465 31.6829 96.8505 31.7733C96.8269 31.7889 96.7994 31.7973 96.7714 31.7973C96.7433 31.7973 96.7159 31.7889 96.6922 31.7733C96.6678 31.7594 96.6478 31.7384 96.6347 31.7128C96.6217 31.6873 96.6162 31.6583 96.6189 31.6296C96.6189 31.6296 96.7463 30.1326 96.0939 29.5138C95.9524 29.3916 95.7847 29.3061 95.6048 29.2644C95.4248 29.2227 95.2379 29.2261 95.0595 29.2743C95.0349 29.2797 95.0093 29.2781 94.9855 29.2696C94.9617 29.2612 94.9406 29.2462 94.9244 29.2264C94.9079 29.2063 94.8967 29.1821 94.8919 29.1562C94.8872 29.1303 94.8891 29.1036 94.8974 29.0786C95.0286 28.7074 95.2834 27.6654 94.9398 27.2942C94.7777 27.1225 94.4805 27.1066 94.052 27.2503C94.0228 27.2603 93.9912 27.2602 93.962 27.2502C93.9328 27.2401 93.9075 27.2205 93.8899 27.1944C93.8723 27.1687 93.8628 27.138 93.8628 27.1066C93.8628 27.0751 93.8723 27.0444 93.8899 27.0187C94.1292 26.7073 94.7198 25.7972 94.5731 25.362C94.5489 25.3019 94.5098 25.2495 94.4596 25.2103C94.4094 25.171 94.35 25.1462 94.2875 25.1385C94.2692 25.1338 94.252 25.1254 94.2369 25.1139C94.2217 25.1023 94.209 25.0878 94.1993 25.0711C94.1896 25.0544 94.1832 25.0359 94.1804 25.0166C94.1777 24.9973 94.1787 24.9777 94.1833 24.9588C94.1868 24.9398 94.1942 24.9217 94.2049 24.9058C94.2155 24.8899 94.2293 24.8764 94.2453 24.8663C94.2612 24.8561 94.2791 24.8495 94.2976 24.8469C94.3162 24.8443 94.3351 24.8457 94.3531 24.851C94.4615 24.8674 94.5638 24.9128 94.6498 24.9829C94.7358 25.0529 94.8026 25.1451 94.8433 25.2502C95.0016 25.7253 94.6156 26.4479 94.3454 26.8471C94.4846 26.8128 94.6297 26.8142 94.7683 26.8511C94.9068 26.888 95.0346 26.9592 95.1405 27.0587C95.5651 27.5138 95.3606 28.4758 95.2332 28.9269C95.4214 28.9037 95.6123 28.9219 95.7933 28.9804C95.9742 29.0389 96.1412 29.1363 96.2831 29.2663C96.8582 29.8092 96.92 30.8631 96.9123 31.3461C97.033 31.2874 97.1648 31.257 97.2982 31.257C97.4317 31.257 97.5635 31.2874 97.6842 31.3461C98.4138 31.6775 98.9194 32.8551 98.9928 33.8093C98.9943 33.8285 98.9922 33.8478 98.9864 33.8661C98.9806 33.8844 98.9713 33.9013 98.9591 33.9159C98.9468 33.9304 98.9319 33.9422 98.9151 33.9507C98.8984 33.9591 98.8801 33.9639 98.8615 33.9649L98.85 34.0009Z" fill="#3D3559"/>
<path d="M62.311 86.8766L85.5247 100.737L118.025 81.3316L116.478 80.4054L93.2639 66.5449L62.311 85.0282V86.8766Z" fill="#4F4670"/>
<path d="M85.5244 100.738V98.8899L118.025 79.4844V81.3327L85.5244 100.738Z" fill="#2A2440"/>
<path d="M114.428 40.3482C114.39 40.3472 114.355 40.3313 114.328 40.3039C114.302 40.2764 114.286 40.2394 114.285 40.2005V21.9727L97.4752 32.0088C97.4594 32.0194 97.4417 32.0264 97.4232 32.0295C97.4047 32.0326 97.3858 32.0317 97.3676 32.0268C97.3495 32.0219 97.3325 32.0132 97.3178 32.0012C97.3031 31.9891 97.2909 31.974 97.2822 31.9569C97.2724 31.9401 97.266 31.9216 97.2632 31.9022C97.2605 31.8829 97.2615 31.8632 97.2661 31.8443C97.2708 31.8253 97.2791 31.8075 97.2904 31.7919C97.3018 31.7763 97.316 31.7632 97.3323 31.7533L114.378 21.5895C114.399 21.5757 114.424 21.5684 114.449 21.5684C114.474 21.5684 114.499 21.5757 114.521 21.5895C114.542 21.6027 114.56 21.6214 114.572 21.6438C114.584 21.6662 114.59 21.6915 114.59 21.7172V40.2005C114.59 40.2217 114.586 40.2427 114.578 40.2621C114.569 40.2814 114.557 40.2987 114.542 40.3127C114.526 40.3267 114.508 40.3372 114.489 40.3433C114.469 40.3494 114.448 40.3511 114.428 40.3482Z" fill="#FAFAFA"/>
<path d="M111.332 35.724H111.289C111.253 35.7154 111.221 35.6921 111.2 35.6592C111.18 35.6263 111.173 35.5865 111.181 35.5484L114.061 22.65L108.348 32.8817C108.339 32.8987 108.327 32.9137 108.313 32.9258C108.298 32.938 108.281 32.9469 108.263 32.9521C108.245 32.9573 108.226 32.9587 108.208 32.9562C108.189 32.9537 108.171 32.9474 108.155 32.9375C108.138 32.928 108.124 32.9151 108.112 32.8997C108.1 32.8842 108.092 32.8665 108.087 32.8475C108.082 32.8285 108.08 32.8087 108.083 32.7892C108.085 32.7697 108.091 32.7509 108.101 32.7339L114.277 21.644C114.295 21.6135 114.322 21.5904 114.355 21.5787C114.387 21.5671 114.422 21.5675 114.454 21.5801C114.486 21.5934 114.512 21.6181 114.528 21.6496C114.543 21.6811 114.547 21.7174 114.539 21.7517L111.451 35.6162C111.445 35.6447 111.429 35.6702 111.408 35.6895C111.387 35.7088 111.36 35.7208 111.332 35.724Z" fill="#FAFAFA"/>
<path d="M105.144 31.1218C105.125 31.1219 105.105 31.1177 105.087 31.1094C105.069 31.1012 105.053 31.089 105.04 31.0739C105.014 31.0462 104.999 31.009 104.999 30.9701C104.999 30.9312 105.014 30.8939 105.04 30.8663L114.327 21.6246C114.354 21.5973 114.39 21.582 114.428 21.582C114.465 21.582 114.501 21.5973 114.528 21.6246C114.555 21.653 114.57 21.6909 114.57 21.7304C114.57 21.77 114.555 21.8079 114.528 21.8362L105.241 31.0739C105.229 31.0881 105.214 31.0996 105.197 31.1078C105.181 31.1161 105.163 31.1208 105.144 31.1218Z" fill="#FAFAFA"/>
<path d="M114.428 37.3975C114.39 37.3965 114.354 37.3806 114.328 37.3531C114.301 37.3256 114.286 37.2886 114.285 37.2498C114.285 34.8306 111.675 34.6669 111.564 34.6629C111.542 34.6613 111.522 34.6552 111.503 34.6449C111.485 34.6345 111.468 34.6203 111.455 34.603C111.443 34.586 111.435 34.5665 111.431 34.5458C111.427 34.5251 111.427 34.5038 111.432 34.4833C111.527 33.989 111.495 33.4776 111.339 33.0004C111.182 32.5232 110.907 32.097 110.541 31.7647C110.407 31.6265 110.246 31.5195 110.069 31.4506C109.892 31.3818 109.703 31.3528 109.514 31.3654C109.413 31.3831 109.317 31.4229 109.233 31.4821C109.148 31.5413 109.077 31.6186 109.024 31.7088C109.008 31.7379 108.982 31.7605 108.952 31.7728C108.922 31.7851 108.889 31.7865 108.858 31.7766C108.827 31.7668 108.8 31.7464 108.782 31.7189C108.764 31.6913 108.755 31.6582 108.757 31.6249C108.757 31.5331 108.916 29.3814 107.086 29.1698C107.062 29.1668 107.04 29.158 107.021 29.1441C107.001 29.1302 106.985 29.1116 106.974 29.09C106.964 29.069 106.958 29.0457 106.958 29.0221C106.958 28.9985 106.964 28.9752 106.974 28.9542C106.974 28.9542 107.785 27.3853 107.472 26.6149C107.436 26.5244 107.38 26.444 107.308 26.3802C107.236 26.3164 107.151 26.2709 107.059 26.2476C107.041 26.2426 107.024 26.2338 107.009 26.2217C106.994 26.2096 106.981 26.1945 106.972 26.1773C106.963 26.1601 106.958 26.1412 106.956 26.1217C106.954 26.1022 106.957 26.0826 106.962 26.064C106.974 26.027 106.999 25.996 107.032 25.9774C107.065 25.9588 107.104 25.9541 107.14 25.9642C107.273 25.9995 107.396 26.0667 107.499 26.1604C107.603 26.254 107.683 26.3714 107.734 26.5031C108.032 27.2336 107.53 28.4432 107.314 28.8983C108.734 29.1818 108.997 30.567 109.035 31.2537C109.162 31.1604 109.307 31.0965 109.46 31.066C109.692 31.0428 109.926 31.0742 110.145 31.1578C110.363 31.2415 110.561 31.3753 110.722 31.5491C111.106 31.8989 111.399 32.3417 111.576 32.8378C111.753 33.3339 111.809 33.8678 111.737 34.3914C112.363 34.4753 114.57 34.9264 114.567 37.2577C114.565 37.2948 114.549 37.3298 114.523 37.3557C114.498 37.3816 114.463 37.3965 114.428 37.3975Z" fill="#FAFAFA"/>
<path d="M114.428 33.4131C114.392 33.4132 114.357 33.3993 114.331 33.3741C114.304 33.3489 114.288 33.3144 114.285 33.2773C114.223 32.431 113.749 31.3372 113.15 31.0657C113.032 31.0109 112.9 30.9931 112.772 31.0144C112.644 31.0356 112.525 31.0951 112.429 31.1855C112.405 31.2011 112.377 31.2094 112.349 31.2094C112.321 31.2094 112.294 31.2011 112.27 31.1855C112.246 31.1716 112.226 31.1505 112.213 31.125C112.2 31.0994 112.194 31.0705 112.197 31.0418C112.197 31.0418 112.324 29.5447 111.672 28.926C111.53 28.8037 111.363 28.7182 111.183 28.6766C111.003 28.6349 110.816 28.6383 110.638 28.6864C110.613 28.6918 110.587 28.6902 110.564 28.6818C110.54 28.6734 110.519 28.6584 110.502 28.6385C110.486 28.6185 110.475 28.5943 110.47 28.5684C110.465 28.5425 110.467 28.5157 110.475 28.4908C110.607 28.1196 110.861 27.0776 110.518 26.7064C110.356 26.5347 110.059 26.5187 109.63 26.6625C109.601 26.6725 109.569 26.6724 109.54 26.6623C109.511 26.6523 109.486 26.6327 109.468 26.6066C109.45 26.5809 109.441 26.5502 109.441 26.5187C109.441 26.4873 109.45 26.4566 109.468 26.4309C109.707 26.1195 110.298 25.2093 110.151 24.7742C110.127 24.7141 110.088 24.6617 110.038 24.6224C109.987 24.5832 109.928 24.5584 109.866 24.5506C109.847 24.546 109.83 24.5376 109.815 24.526C109.8 24.5145 109.787 24.4999 109.777 24.4832C109.768 24.4665 109.761 24.448 109.759 24.4288C109.756 24.4095 109.757 24.3899 109.761 24.371C109.765 24.352 109.772 24.3339 109.783 24.318C109.794 24.302 109.807 24.2886 109.823 24.2784C109.839 24.2683 109.857 24.2617 109.876 24.2591C109.894 24.2565 109.913 24.2579 109.931 24.2632C110.04 24.2795 110.142 24.325 110.228 24.3951C110.314 24.4651 110.381 24.5573 110.421 24.6624C110.58 25.1375 110.194 25.86 109.923 26.2593C110.063 26.225 110.208 26.2264 110.346 26.2633C110.485 26.3001 110.613 26.3714 110.719 26.4708C111.143 26.9259 110.939 27.888 110.811 28.3391C111 28.3159 111.19 28.3341 111.371 28.3925C111.552 28.451 111.719 28.5485 111.861 28.6785C112.436 29.2214 112.498 30.2753 112.49 30.7583C112.611 30.6996 112.743 30.6691 112.876 30.6691C113.01 30.6691 113.142 30.6996 113.262 30.7583C113.992 31.0897 114.498 32.2673 114.571 33.2214C114.572 33.2406 114.57 33.26 114.564 33.2783C114.559 33.2966 114.549 33.3135 114.537 33.328C114.525 33.3426 114.51 33.3544 114.493 33.3628C114.476 33.3713 114.458 33.3761 114.44 33.3771L114.428 33.4131Z" fill="#FAFAFA"/>
<path d="M115.136 60.4338V62.2856L83.1818 81.1996L62.5112 65.9893V64.1375L91.9198 46.5469L115.136 60.4338Z" fill="#2A2440"/>
<path d="M115.106 60.4132L82.6321 79.6311L69.5008 72.9652L62.4873 64.1099L91.8923 46.5527L115.106 60.4132Z" fill="#4F4670"/>
<path d="M115.106 40.0852V41.9295L83.4309 60.7604L62.4873 45.6262V43.7819L91.8923 26.2207L115.106 40.0852Z" fill="#2A2440"/>
<path d="M115.136 39.9402L83.4308 58.946L70.9985 52.2312L60.0142 44.5283L91.9095 26.2539L115.136 39.9402Z" fill="#4F4670"/>
<path opacity="0.2" d="M116.658 24.3774L118.21 23.4552V17.9062L116.654 18.8324L116.658 24.3774Z" fill="black"/>
<path d="M65.5835 84.4414L64.0396 85.3636V90.4175C64.0474 90.5656 64.0888 90.7096 64.1606 90.8379C64.2324 90.9663 64.3324 91.0753 64.4526 91.1561L65.1744 91.5872C65.3024 91.6542 65.4439 91.6891 65.5874 91.6891C65.7309 91.6891 65.8724 91.6542 66.0004 91.5872L66.7222 91.1561C66.9777 90.9854 67.1759 90.7372 67.2896 90.4455L68.6831 86.2897L65.5835 84.4414Z" fill="#2A2440"/>
<path d="M64.0352 90.4192C64.043 90.5672 64.0844 90.7113 64.1562 90.8396C64.228 90.9679 64.328 91.0769 64.4482 91.1577L65.17 91.5889C65.2199 91.6201 65.2759 91.6392 65.334 91.6448C65.392 91.6504 65.4505 91.6424 65.5051 91.6213C65.5597 91.6001 65.609 91.5665 65.6492 91.5229C65.6894 91.4792 65.7196 91.4267 65.7374 91.3693L67.1308 87.2136L64.0429 85.3652L64.0352 90.4192Z" fill="#3D3559"/>
<path d="M121.873 15.1339C121.855 14.9219 121.782 14.7189 121.663 14.5455C121.543 14.3722 121.381 14.235 121.194 14.1479L98.1844 0.40713C97.6729 0.139468 97.1076 0 96.5343 0C95.961 0 95.3958 0.139468 94.8842 0.40713L59.4962 21.5412C59.3085 21.6283 59.1466 21.7656 59.0272 21.9389C58.9078 22.1122 58.8352 22.3153 58.8169 22.5272V24.3756C58.8352 24.5875 58.9078 24.7906 59.0272 24.9639C59.1466 25.1372 59.3085 25.2745 59.4962 25.3616L82.5054 39.0983C83.0164 39.3679 83.5819 39.5084 84.1555 39.5084C84.7291 39.5084 85.2946 39.3679 85.8056 39.0983L121.194 17.9683C121.381 17.8812 121.543 17.7439 121.663 17.5706C121.782 17.3973 121.855 17.1942 121.873 16.9822V15.1339Z" fill="#3D3559"/>
<path d="M82.5053 37.25L59.4962 23.5133C58.5853 22.9664 58.5853 22.0841 59.4962 21.5412L94.8841 0.40713C95.3957 0.139468 95.961 0 96.5343 0C97.1076 0 97.6728 0.139468 98.1844 0.40713L121.194 14.1479C122.108 14.6948 122.108 15.573 121.194 16.1199L85.8056 37.25C85.2945 37.5195 84.7291 37.66 84.1554 37.66C83.5818 37.66 83.0163 37.5195 82.5053 37.25Z" fill="#4F4670"/>
<path opacity="0.1" d="M116.634 20.5703L105.82 34.4584L87.2797 45.5673L87.2759 38.1614L116.634 20.5703Z" fill="black"/>
<path opacity="0.1" d="M115.136 41.7441L105.851 54.7268L87.2759 65.9079V58.4362L115.136 41.7441Z" fill="black"/>
<path opacity="0.1" d="M115.112 62.0664L105.86 75.0047L87.353 86.0987V78.7014L115.112 62.0664Z" fill="black"/>
<path d="M64.8731 84.7871L63.3291 85.7093V90.7632C63.3369 90.9113 63.3784 91.0553 63.4501 91.1836C63.5219 91.312 63.6219 91.421 63.7421 91.5018L64.4639 91.9329C64.592 91.9999 64.7334 92.0348 64.8769 92.0348C65.0204 92.0348 65.1619 91.9999 65.2899 91.9329L66.0118 91.5018C66.2682 91.3305 66.4666 91.0807 66.5792 90.7872L67.9726 86.6354L64.8731 84.7871Z" fill="#2A2440"/>
<path d="M63.3291 90.761C63.3369 90.909 63.3784 91.0531 63.4501 91.1814C63.5219 91.3097 63.6219 91.4187 63.7421 91.4995L64.4639 91.9307C64.5138 91.9619 64.5699 91.981 64.6279 91.9866C64.6859 91.9922 64.7445 91.9842 64.7991 91.963C64.8537 91.9419 64.9029 91.9083 64.9431 91.8646C64.9834 91.821 65.0135 91.7685 65.0313 91.7111L66.4171 87.5554L63.3291 85.707V90.761Z" fill="#3D3559"/>
<path d="M78.8149 99.9797C78.822 100.128 78.8628 100.272 78.9338 100.401C79.0049 100.53 79.1043 100.64 79.2241 100.722L79.9498 101.153C79.9996 101.185 80.0557 101.204 80.1137 101.209C80.1718 101.215 80.2303 101.207 80.2849 101.186C80.3395 101.165 80.3888 101.131 80.429 101.087C80.4692 101.044 80.4994 100.991 80.5172 100.934L81.9106 96.778L78.8227 94.9297L78.8149 99.9797Z" fill="#3D3559"/>
<path d="M30.8364 105.093L54.0501 118.954L86.5508 99.5484L85.003 98.6222L61.7893 84.7617L30.8364 103.245V105.093Z" fill="#4F4670"/>
<path d="M54.0498 119.658V117.81L86.4271 98.3555L86.8265 99.9729L54.0498 119.658Z" fill="#2A2440"/>
<path d="M83.4552 79.2179V81.0662L54.0501 98.6234L30.8364 84.7629V82.9146L60.2415 65.3574L83.4552 79.2179Z" fill="#2A2440"/>
<path d="M83.4552 79.2179L54.0501 96.7751L30.8364 82.9146L60.2415 65.3574L83.4552 79.2179Z" fill="#4F4670"/>
<path d="M83.4552 58.8899V60.7342L54.0501 78.2954L30.8364 64.4309V62.5865L60.2415 45.0254L83.4552 58.8899Z" fill="#2A2440"/>
<path d="M83.4552 58.8899L54.0501 76.447L30.8364 62.5865L60.2415 45.0254L83.4552 58.8899Z" fill="#4F4670"/>
<path d="M53.9499 52.3402L32.4886 39.5456C32.323 39.4217 32.1286 39.3453 31.9253 39.3243C31.7219 39.3033 31.5167 39.3383 31.3307 39.4258C31.0527 39.5895 30.0646 40.1843 29.7867 40.348C29.6176 40.4707 29.4834 40.6379 29.3979 40.8324C29.3124 41.0268 29.2787 41.2413 29.3003 41.4538V102.201C29.3319 102.793 29.4979 103.369 29.7849 103.883C30.0719 104.396 30.4719 104.832 30.9524 105.155L52.4137 117.954C52.5793 118.078 52.7737 118.154 52.9771 118.175C53.1804 118.196 53.3856 118.161 53.5716 118.074C53.8496 117.906 54.8454 117.315 55.1156 117.144C55.2855 117.022 55.4209 116.856 55.5077 116.662C55.5946 116.468 55.6298 116.254 55.6097 116.042V55.2983C55.5779 54.7049 55.411 54.1276 55.1226 53.6135C54.8341 53.0995 54.4323 52.6632 53.9499 52.3402Z" fill="#2A2440"/>
<path opacity="0.2" d="M54.0503 61.6666L55.6019 60.7404V55.1914L54.0464 56.1176L54.0503 61.6666Z" fill="black"/>
<path d="M30.9368 40.4708L52.4019 53.2654C52.882 53.5899 53.2814 54.0269 53.5677 54.5408C53.8541 55.0547 54.0193 55.6312 54.0501 56.2235V118.955C54.0501 118.955 52.8574 118.224 52.4019 117.953L30.9407 105.154C30.4602 104.831 30.0602 104.395 29.7732 103.882C29.4861 103.368 29.3201 102.792 29.2886 102.2V41.4528C29.2473 41.2398 29.2717 41.0187 29.3584 40.8207C29.4451 40.6228 29.5896 40.458 29.7716 40.3495C29.9537 40.241 30.1641 40.1944 30.3731 40.2162C30.5821 40.2379 30.7793 40.327 30.9368 40.4708Z" fill="#3D3559"/>
<path opacity="0.2" d="M52.4019 53.2654L30.9368 40.4708C30.7793 40.327 30.5821 40.2379 30.3731 40.2162C30.1641 40.1944 29.9537 40.241 29.7716 40.3495C29.5896 40.458 29.4451 40.6228 29.3584 40.8207C29.2717 41.0187 29.2473 41.2398 29.2886 41.4528V46.878L54.0501 61.6487V56.2235C54.0193 55.6312 53.8541 55.0547 53.5677 54.5408C53.2814 54.0269 52.882 53.5899 52.4019 53.2654Z" fill="black"/>
<path d="M90.2215 33.9386C90.2032 33.7266 90.1306 33.5235 90.0112 33.3502C89.8918 33.1769 89.7299 33.0397 89.5422 32.9525L66.5331 19.2118C66.0215 18.9442 65.4563 18.8047 64.8829 18.8047C64.3097 18.8047 63.7444 18.9442 63.2328 19.2118L27.8449 40.3459C27.6572 40.433 27.4952 40.5703 27.3758 40.7436C27.2564 40.9169 27.1838 41.12 27.1655 41.3319V43.1802C27.1838 43.3922 27.2564 43.5953 27.3758 43.7686C27.4952 43.9419 27.6572 44.0792 27.8449 44.1663L50.854 57.903C51.365 58.1726 51.9305 58.3131 52.5041 58.3131C53.0778 58.3131 53.6432 58.1726 54.1542 57.903L89.5422 36.773C89.7299 36.6858 89.8918 36.5486 90.0112 36.3753C90.1306 36.202 90.2032 35.9989 90.2215 35.7869V33.9386Z" fill="#3D3559"/>
<path d="M50.8534 56.0547L27.8443 42.318C26.9334 41.771 26.9334 40.8888 27.8443 40.3459L63.2323 19.2118C63.7438 18.9442 64.3091 18.8047 64.8824 18.8047C65.4557 18.8047 66.021 18.9442 66.5325 19.2118L89.5417 32.9525C90.4565 33.4995 91.286 33.9912 90.3712 34.5381L54.1537 56.0547C53.6427 56.3242 53.0772 56.4647 52.5036 56.4647C51.9299 56.4647 51.3645 56.3242 50.8534 56.0547Z" fill="#4F4670"/>
<path opacity="0.1" d="M87.0758 38.2148L87.2756 38.2639V43.6064V45.5669L74.04 53.122L55.4248 64.1921L55.4209 56.812L87.0758 38.2148Z" fill="black"/>
<path opacity="0.1" d="M87.276 58.5059V65.9069L55.6211 84.7772V76.6907L87.276 58.5059Z" fill="black"/>
<path opacity="0.1" d="M87.3509 78.7012V86.1022L55.6211 105.071V96.9085L87.3509 78.7012Z" fill="black"/>
<path d="M142.952 53.38C141.265 55.7273 139.007 68.6337 138.154 72.7735C134.051 72.6497 128.562 72.4501 126.486 72.2266C124.17 71.9751 119.225 71.484 116.797 71.8274C110.772 72.6258 111.007 76.7217 111.154 77.7915C111.312 79.0131 112.157 79.572 115.4 78.8095C116.125 78.6446 116.865 78.555 117.608 78.542C117.92 78.542 118.58 78.3784 118.827 78.6538C119.213 79.053 118.098 79.7237 117.82 79.9073C117.392 80.1948 116.944 80.558 116.855 81.077C116.83 81.1719 116.831 81.2723 116.859 81.3664C116.887 81.4606 116.941 81.5444 117.013 81.608C117.17 81.6743 117.346 81.6743 117.503 81.608C118.983 81.2447 120.411 80.6824 121.749 79.9353C122.254 79.6206 122.785 79.3534 123.336 79.1369C124.173 78.8574 125.038 79.0211 125.88 79.0211C127.69 79.0211 137.259 80.0031 141.512 80.4503C144.457 80.7576 144.77 77.7516 145.785 74.7057C147.032 70.9292 149.985 51.0686 149.985 51.0686C147.005 50.6215 144.959 50.5935 142.952 53.38Z" fill="#FFA8A7"/>
<path d="M150.031 50.7565C148.607 50.4851 145.399 50.0739 143.655 52.0899C141.91 54.1059 141.497 56.2217 140.729 59.2756C139.961 62.3296 138.598 67.7987 138.598 67.7987C138.598 67.7987 140.848 71.1401 147.893 70.194L150.031 50.7565Z" fill="#3D3559"/>
<path d="M167.721 156.315L162.769 156.319L161.345 145.201L167.594 144.945L167.721 156.315Z" fill="#FFA8A7"/>
<path d="M151.278 150.762C150.437 152.275 147.731 152.151 145.488 151.616L145.229 140.686L151.849 140.414L151.278 150.762Z" fill="#FFA8A7"/>
<path d="M167.386 86.0618C167.563 90.7924 166.957 118.765 166.957 118.765C167.123 120.122 168.482 122.49 168.764 127.388C169.177 134.502 167.776 149.672 167.776 149.672C167.776 149.672 164.939 151.205 161.881 150.031C161.881 150.031 158.77 128.074 157.635 121.056C156.655 114.948 155.397 98.565 155.397 98.565L152.953 119.563C153.401 122.049 153.586 124.577 153.505 127.104C153.405 130.37 151.606 146.226 151.606 146.226C149.554 146.921 147.35 146.975 145.268 146.382C145.268 146.382 143.794 121.775 143.624 118.793C143.431 115.392 143.562 85.3672 143.562 85.3672L167.386 86.0618Z" fill="#7C3AED"/>
<path opacity="0.2" d="M155.404 98.5741C155.404 98.5741 151.077 97.3046 148.128 94.582C148.128 94.582 149.51 97.0212 153.424 99.1849L153.2 117.513L155.404 98.5741Z" fill="black"/>
<path d="M157.126 165.59C156.968 165.758 157.06 166.863 157.253 167.151C157.446 167.438 158.627 168.412 160.677 168.484C162.634 168.548 164.363 168.205 165.479 167.406C166.594 166.608 167.119 165.758 167.185 164.612C167.25 163.466 167.084 162.352 167.571 161.446C168.03 160.612 168.775 159.658 168.926 159.207C169.261 158.228 168.852 156.867 168.852 156.867L157.126 165.59Z" fill="#2A2440"/>
<path d="M162.066 155.342C162.069 155.778 162.009 156.213 161.889 156.631C161.47 157.992 160.84 159.275 160.025 160.427C159.461 161.174 158.751 161.801 158.152 162.523C157.512 163.209 157.12 164.101 157.041 165.05C157.018 166.647 158.701 167.106 159.986 167.29C161.379 167.48 162.796 167.344 164.131 166.891C164.835 166.671 165.462 166.247 165.937 165.667C166.413 165.088 166.716 164.379 166.81 163.625C166.864 163.182 166.81 162.735 166.857 162.292C166.987 161.274 167.36 160.306 167.941 159.473C168.278 158.992 168.565 158.475 168.798 157.932C169.157 156.934 168.798 155.845 168.505 154.882C168.254 154.048 167.968 153.102 167.686 153.194C167.686 153.637 167.686 153.677 167.412 153.992C167.026 154.391 167.046 154.946 166.64 155.294C166.758 154.925 166.838 154.545 166.88 154.16C166.899 154.003 166.862 153.844 166.776 153.713C166.636 153.596 166.472 153.514 166.297 153.473C165.686 153.287 165.059 153.165 164.425 153.11C163.821 153.028 163.208 153.048 162.611 153.17C162.434 153.212 162.276 153.315 162.163 153.461C162.064 153.625 162.014 153.815 162.02 154.008C162.02 154.268 162.063 154.918 162.066 155.342Z" fill="#4F4670"/>
<path d="M160.6 159.544C161.156 159.081 162.429 159.021 163.132 159.073C163.844 159.107 164.536 159.326 165.143 159.712C165.232 159.774 165.34 159.8 165.447 159.787C165.554 159.774 165.653 159.722 165.726 159.64C165.768 159.593 165.801 159.538 165.821 159.477C165.84 159.416 165.847 159.352 165.841 159.288C165.834 159.224 165.814 159.163 165.782 159.108C165.751 159.053 165.708 159.006 165.656 158.969C164.986 158.499 164.2 158.234 163.391 158.203C161.669 158.151 161.179 158.474 161.179 158.474C161.179 158.474 160.411 159.025 160.6 159.544Z" fill="#F5F5F5"/>
<path d="M159.349 161.221C160.048 160.754 161.457 160.758 162.155 160.822C162.855 160.868 163.532 161.103 164.116 161.504C164.205 161.566 164.312 161.592 164.418 161.579C164.525 161.566 164.623 161.514 164.695 161.432C164.739 161.386 164.772 161.331 164.792 161.27C164.813 161.21 164.82 161.145 164.814 161.081C164.808 161.017 164.788 160.955 164.756 160.9C164.724 160.845 164.681 160.798 164.63 160.762C163.948 160.267 163.145 159.979 162.314 159.931C160.588 159.876 160.156 160.255 160.156 160.255C159.96 160.343 159.785 160.475 159.646 160.642C159.506 160.81 159.405 161.007 159.349 161.221Z" fill="#F5F5F5"/>
<path d="M164.008 156.478C163.279 156.375 162.537 156.469 161.854 156.75C161.561 156.937 161.379 157.44 161.576 157.548C162.174 157.27 162.829 157.15 163.483 157.197C164.129 157.236 164.763 157.39 165.359 157.652C165.509 157.712 165.687 157.799 165.841 157.879C165.891 157.905 165.945 157.921 166 157.925C166.055 157.929 166.111 157.921 166.163 157.902C166.216 157.883 166.264 157.853 166.305 157.814C166.345 157.775 166.378 157.728 166.401 157.676C166.437 157.585 166.44 157.483 166.409 157.391C166.378 157.298 166.314 157.22 166.231 157.173C165.547 156.779 164.788 156.542 164.008 156.478Z" fill="#F5F5F5"/>
<path d="M134.171 157.581C133.995 158.037 133.995 158.546 134.171 159.002C134.34 159.429 136.386 160.755 139.227 160.699C141.34 160.646 143.4 160.009 145.195 158.855C146.31 158.168 147.441 158.084 148.846 158.056C150.251 158.028 152.127 157.409 152.467 156.747C152.806 156.084 152.505 154.898 152.505 154.898L134.171 157.581Z" fill="#2A2440"/>
<path d="M146.021 148.997L145.801 148.937C145.676 148.898 145.545 148.886 145.415 148.901C145.276 148.936 145.151 149.014 145.056 149.125C144.764 149.479 144.505 149.861 144.284 150.266C143.647 151.236 142.354 152.007 140.965 152.697C140.015 153.165 139.092 153.52 138.116 153.915C137.139 154.31 135.8 154.534 135.028 155.029C133.87 155.751 133.65 157.688 134.877 158.518C135.943 159.237 138.784 160.095 141.825 159.36C143.489 158.961 145.396 157.236 147.557 157.169C148.935 157.125 151.545 156.853 152.475 155.819C152.826 155.36 152.475 153.823 152.162 152.498C151.838 151.053 151.985 148.905 151.359 148.905L151.321 149.628C151.263 149.843 150.773 150.055 150.618 150.222L150.062 150.829C149.835 151.11 149.557 151.343 149.244 151.516C148.692 151.771 148.048 151.62 147.457 151.46C147.434 151.46 147.754 150.35 147.789 150.242C147.824 150.158 147.834 150.065 147.82 149.975C147.79 149.886 147.731 149.812 147.654 149.763C147.167 149.394 146.611 149.133 146.021 148.997Z" fill="#4F4670"/>
<path d="M142.284 151.988C142.392 151.798 142.545 151.639 142.727 151.526C142.91 151.412 143.117 151.347 143.33 151.338C143.959 151.25 145.036 151.777 145.696 152.396C145.759 152.454 145.806 152.526 145.835 152.608C145.864 152.689 145.873 152.777 145.861 152.862C145.85 152.948 145.818 153.03 145.769 153.1C145.72 153.171 145.656 153.227 145.581 153.266C145.486 153.314 145.38 153.331 145.276 153.314C145.173 153.296 145.076 153.246 145.002 153.17C144.279 152.426 143.304 152.002 142.284 151.988Z" fill="#F5F5F5"/>
<path d="M140.3 153.014C140.445 152.823 140.632 152.671 140.846 152.57C141.059 152.469 141.293 152.423 141.528 152.436C141.528 152.436 143.157 152.563 144.118 153.585C144.177 153.641 144.222 153.711 144.25 153.789C144.277 153.868 144.286 153.951 144.276 154.034C144.265 154.116 144.235 154.195 144.189 154.262C144.143 154.33 144.081 154.386 144.01 154.424C143.919 154.47 143.816 154.485 143.716 154.469C143.616 154.453 143.523 154.405 143.45 154.332C143.054 153.882 142.566 153.529 142.021 153.301C141.475 153.073 140.887 152.975 140.3 153.014Z" fill="#F5F5F5"/>
<path d="M138.12 153.916C138.284 153.741 138.482 153.604 138.702 153.515C138.922 153.426 139.158 153.387 139.393 153.401C140.316 153.507 141.183 153.91 141.871 154.555C141.931 154.611 141.976 154.682 142.004 154.76C142.031 154.838 142.04 154.923 142.029 155.005C142.019 155.088 141.989 155.167 141.943 155.235C141.896 155.303 141.835 155.359 141.763 155.397C141.672 155.444 141.569 155.46 141.469 155.442C141.368 155.425 141.276 155.376 141.204 155.301C140.829 154.839 140.355 154.472 139.82 154.232C139.285 153.991 138.702 153.883 138.12 153.916Z" fill="#F5F5F5"/>
<path d="M158.284 50.8451C160.106 51.0607 162.26 51.1764 164.001 51.412C166.243 51.7154 167.992 54.1146 168.54 57.8272C169.142 61.9151 166.61 73.6359 166.61 73.6359L167.417 87.4564C164.132 89.9595 150.143 91.2729 143.172 86.0672C143.172 86.0672 143.334 62.5459 143.879 58.9211C144.628 53.9509 145.809 50.8651 151.213 50.5098L158.284 50.8451Z" fill="#4F4670"/>
<path d="M170.74 80.7856C170.149 81.8075 169.555 82.8295 168.945 83.8395C168.721 84.2147 168.493 84.586 168.258 84.9533C168.13 85.133 167.981 85.2954 167.814 85.4363C167.52 85.6439 166.91 85.5122 166.555 85.5241C164.811 85.5854 163.071 85.7184 161.337 85.9234C161.192 85.9187 161.047 85.947 160.914 86.0063C160.78 86.0656 160.661 86.1545 160.565 86.2667C160.493 86.4213 160.479 86.5974 160.525 86.7621C160.57 86.9268 160.672 87.0686 160.812 87.1609C161.096 87.3373 161.419 87.4362 161.75 87.4483L163.255 87.632C163.47 87.6394 163.678 87.7085 163.857 87.8316C164.405 88.2907 163.359 88.8416 163.047 89.0651C162.418 89.5169 161.747 89.9021 161.043 90.2148C157.905 91.5801 157.523 92.5702 158.102 93.6959C158.604 94.674 160.773 98.2309 166.285 95.169C168.505 93.9355 171.882 90.0392 173.422 88.1549C175.638 85.4363 179.386 79.3724 179.386 79.3724C181.516 76.3464 181.791 75.1048 181.841 73.8473C181.891 72.5898 175.279 62.917 173.032 59.5198C170.786 56.1225 169.717 51.9907 164 51.4238C164 51.4238 161.823 58.5617 165.428 63.1805L173.754 75.1926C173.754 75.1926 171.55 79.3843 170.74 80.7856Z" fill="#FFA8A7"/>
<path d="M176.78 64.1266C175.711 62.5298 174.596 60.885 173.519 59.2563C168.983 52.4099 169.365 51.1564 162.827 51.0605C162.248 51.9787 161.904 55.9309 162.776 59.899C163.506 63.2324 166.25 65.5837 166.25 65.5837L169.524 70.1706C169.524 70.1706 171.527 70.1067 173.928 68.2864C175.314 67.2818 176.322 65.8121 176.78 64.1266Z" fill="#3D3559"/>
<path d="M162.595 32.8509C162.267 32.3444 161.811 31.9395 161.278 31.6794C160.744 31.4193 160.152 31.3137 159.565 31.3739L159.226 39.9449L158.67 43.1106L158.766 46.6356C159.089 46.5884 159.395 46.4575 159.655 46.2551C159.916 46.0526 160.123 45.7853 160.256 45.4779C160.766 44.4639 162.186 39.5616 162.186 39.5616C163.46 35.5336 163.19 33.7132 162.595 32.8509Z" fill="#2A2440"/>
<path d="M158.839 39.9869C158.983 39.466 159.259 38.9945 159.638 38.6217C160.113 38.0947 162.005 37.5238 162.865 39.1845C163.726 40.8452 162.275 43.0369 161.155 43.7076C159.723 44.5698 158.882 43.3962 158.882 43.3962L158.917 51.2885C158.249 52.8853 155.234 54.3065 153.439 54.083C152.011 53.8953 150.695 52.7336 151.973 51.041L151.868 48.7895C151.868 48.7895 149.958 49.1887 149.012 49.0889C147.441 48.9212 146.395 47.6956 145.839 45.9711C144.944 43.2006 144.546 40.949 144.924 35.3921C145.341 29.3041 152.146 28.893 155.941 31.0966C159.735 33.3002 158.839 39.9869 158.839 39.9869Z" fill="#FFA8A7"/>
<path d="M142.759 29.0677C142.586 27.7383 143.029 26.3131 144.377 25.8421C144.871 25.6282 145.414 25.563 145.942 25.6542C146.471 25.7453 146.964 25.9889 147.364 26.357C147.533 25.8881 147.825 25.4771 148.207 25.1703C148.59 24.8635 149.047 24.6731 149.528 24.6204C150.01 24.5677 150.495 24.6549 150.931 24.8721C151.367 25.0894 151.736 25.428 151.996 25.85C152.354 25.288 152.906 24.8893 153.54 24.7363C153.931 24.646 154.335 24.6377 154.729 24.7118C155.122 24.7858 155.498 24.9407 155.833 25.1674C156.381 25.5866 157.026 26.365 156.863 27.375C157.948 26.9239 159.079 27.2992 159.886 28.2892C160.366 28.8955 160.637 29.6496 160.658 30.433C160.686 30.8398 160.629 31.2482 160.492 31.6306C160.337 31.9939 160.021 32.2334 159.928 32.6446C159.793 33.0063 159.724 33.3906 159.724 33.7783C159.812 34.449 159.955 35.1196 160.04 35.7744C160.132 36.4264 160.184 37.0837 160.198 37.7424C160.178 37.8974 160.126 38.046 160.046 38.1783C159.965 38.3105 159.858 38.4233 159.731 38.5089C159.371 38.8349 159.092 39.2456 158.917 39.7065C158.782 39.994 158.651 40.7046 158.384 40.9042C157.562 41.499 157.469 39.5748 157.431 39.2035C157.378 38.3514 157.378 37.4967 157.431 36.6446C157.016 36.6391 156.607 36.5439 156.23 36.3651C155.853 36.1864 155.517 35.928 155.242 35.6067C154.957 35.2456 154.77 34.8132 154.698 34.3532C154.654 34.0896 154.633 33.8223 154.636 33.5548C154.1 34.4729 152.853 34.8482 151.965 34.7524C150.475 34.6127 149.962 33.954 149.723 33.4709C149.628 33.9471 149.426 34.3932 149.132 34.7723C148.751 35.1422 148.293 35.4156 147.793 35.5708C147.361 35.6898 146.906 35.6851 146.477 35.5571C146.048 35.4291 145.661 35.1827 145.357 34.8442C144.751 35.7424 143.215 35.3432 142.875 35.0917C142.103 34.5129 141.852 33.8222 141.767 32.8362C141.682 31.8501 142.068 30.7244 143.126 30.3371C142.935 29.9384 142.811 29.5092 142.759 29.0677Z" fill="#2A2440"/>
<path d="M151.868 48.7753C151.868 48.7753 155.319 47.8731 156.5 47.1386C157.199 46.7155 157.757 46.0837 158.102 45.3262C157.953 46.0734 157.66 46.782 157.241 47.41C156.407 48.6356 151.907 49.7374 151.907 49.7374L151.868 48.7753Z" fill="#F28F8F"/>
<path d="M152.061 39.7221C152.074 39.8733 152.13 40.0172 152.222 40.136C152.313 40.2547 152.436 40.343 152.576 40.3899C152.715 40.4368 152.865 40.4403 153.007 40.3998C153.148 40.3594 153.275 40.2768 153.372 40.1624C153.468 40.048 153.53 39.9067 153.549 39.7563C153.569 39.6058 153.545 39.4527 153.481 39.3161C153.417 39.1794 153.316 39.0652 153.19 38.9876C153.064 38.9101 152.918 38.8726 152.772 38.8798C152.57 38.8961 152.383 38.9935 152.25 39.151C152.117 39.3085 152.05 39.5135 152.061 39.7221Z" fill="#2A2440"/>
<path d="M150.907 45.4994C150.925 45.6941 150.998 45.8792 151.116 46.0317C151.235 46.1841 151.394 46.2972 151.574 46.3568C151.754 46.4164 151.947 46.4199 152.129 46.367C152.311 46.314 152.474 46.2069 152.598 46.0589C152.722 45.9109 152.801 45.7286 152.825 45.5346C152.849 45.3406 152.818 45.1435 152.735 44.9678C152.652 44.7921 152.521 44.6455 152.358 44.5462C152.195 44.447 152.007 44.3994 151.818 44.4095C151.559 44.431 151.317 44.5573 151.147 44.7613C150.976 44.9652 150.89 45.2304 150.907 45.4994Z" fill="#F28F8F"/>
<path d="M152.683 37.0641L154.273 37.8626C154.372 37.6371 154.384 37.3809 154.306 37.1469C154.227 36.9129 154.065 36.7189 153.853 36.605C153.747 36.5529 153.633 36.5234 153.516 36.5184C153.399 36.5133 153.282 36.5329 153.173 36.5758C153.064 36.6187 152.964 36.6841 152.88 36.768C152.795 36.852 152.729 36.9527 152.683 37.0641Z" fill="#2A2440"/>
<path d="M145.766 37.7549L147.121 36.5572C147.05 36.4617 146.961 36.3821 146.86 36.3234C146.758 36.2646 146.646 36.2279 146.531 36.2156C146.415 36.2033 146.298 36.2155 146.187 36.2516C146.076 36.2877 145.974 36.3469 145.886 36.4255C145.705 36.5891 145.592 36.8182 145.569 37.0655C145.547 37.3128 145.618 37.5596 145.766 37.7549Z" fill="#2A2440"/>
<path d="M146.171 39.567C146.181 39.7146 146.232 39.8562 146.319 39.9738C146.406 40.0913 146.524 40.1798 146.66 40.2279C146.795 40.2759 146.941 40.2816 147.079 40.2441C147.218 40.2066 147.342 40.1276 147.438 40.017C147.533 39.9065 147.594 39.7693 147.614 39.6228C147.634 39.4763 147.612 39.3269 147.55 39.1935C147.488 39.06 147.389 38.9485 147.266 38.8729C147.143 38.7973 147.001 38.761 146.858 38.7686C146.666 38.7819 146.485 38.8731 146.357 39.0224C146.228 39.1717 146.162 39.3673 146.171 39.567Z" fill="#2A2440"/>
<path d="M149.753 38.6816L149.73 43.4043L147.314 42.6857L149.753 38.6816Z" fill="#F28F8F"/>
</svg>
